<svg width="152" height="152" viewBox="0 0 152 152" fill="none" xmlns="http://www.w3.org/2000/svg">
<mask id="mask0_3481_18520" style="mask-type:alpha" maskUnits="userSpaceOnUse" x="-31" y="-31" width="214" height="214">
<path d="M52.5147 3.71667C60.0995 1.25223 68.0249 -0.00303235 76 -0.00303094L76 75.997L52.5147 3.71667Z" fill="#EBEBEB" stroke="#EBEBEB" stroke-width="0.296875"/>
<path d="M31.329 14.5135C37.781 9.82584 44.9307 6.18293 52.5154 3.71848L76.0007 75.9988L31.329 14.5135Z" fill="#EBEBEB" stroke="#EBEBEB" stroke-width="0.296875"/>
<path d="M14.5154 31.3272C19.2031 24.8752 24.877 19.2012 31.329 14.5136L76.0007 75.9989L14.5154 31.3272Z" fill="#EBEBEB" stroke="#EBEBEB" stroke-width="0.296875"/>
<path d="M3.71966 52.5126C6.18411 44.9278 9.82702 37.7782 14.5147 31.3262L76 75.9979L3.71966 52.5126Z" fill="#EBEBEB" stroke="#EBEBEB" stroke-width="0.296875"/>
<path d="M-5.70807e-06 75.9983C-6.21195e-06 68.0232 1.25526 60.0978 3.7197 52.513L76 75.9983L-5.70807e-06 75.9983Z" fill="#EBEBEB" stroke="#EBEBEB" stroke-width="0.296875"/>
<path d="M3.71978 99.4843C1.25533 91.8995 7.27195e-05 83.9741 7.16622e-05 75.999L76.0001 75.999L3.71978 99.4843Z" fill="#EBEBEB" stroke="#EBEBEB" stroke-width="0.296875"/>
<path d="M14.5158 120.67C9.82817 114.218 6.18526 107.068 3.72082 99.4833L76.0011 75.9981L14.5158 120.67Z" fill="#EBEBEB" stroke="#EBEBEB" stroke-width="0.296875"/>
<path d="M31.3272 137.484C24.8752 132.796 19.2012 127.122 14.5136 120.67L75.9989 75.9985L31.3272 137.484Z" fill="#EBEBEB" stroke="#EBEBEB" stroke-width="0.296875"/>
<path d="M52.5146 148.279C44.9298 145.814 37.7802 142.171 31.3282 137.484L75.9999 75.9984L52.5146 148.279Z" fill="#EBEBEB" stroke="#EBEBEB" stroke-width="0.296875"/>
<path d="M76 151.998C68.0249 151.998 60.0995 150.743 52.5147 148.278L76 75.998L76 151.998Z" fill="#EBEBEB" stroke="#EBEBEB" stroke-width="0.296875"/>
<path d="M99.4853 148.279C91.9005 150.743 83.9751 151.999 76 151.999L76 75.9985L99.4853 148.279Z" fill="#EBEBEB" stroke="#EBEBEB" stroke-width="0.296875"/>
<path d="M120.671 137.484C114.219 142.172 107.069 145.815 99.4845 148.279L75.9993 75.9988L120.671 137.484Z" fill="#EBEBEB" stroke="#EBEBEB" stroke-width="0.296875"/>
<path d="M137.485 120.671C132.797 127.123 127.123 132.797 120.671 137.485L75.9993 75.9993L137.485 120.671Z" fill="#EBEBEB" stroke="#EBEBEB" stroke-width="0.296875"/>
<path d="M148.28 99.4853C145.816 107.07 142.173 114.22 137.485 120.672L76 76L148.28 99.4853Z" fill="#EBEBEB" stroke="#EBEBEB" stroke-width="0.296875"/>
<path d="M152 76.0003C152 83.9754 150.745 91.9008 148.28 99.4856L76 76.0002L152 76.0003Z" fill="#EBEBEB" stroke="#EBEBEB" stroke-width="0.296875"/>
<path d="M148.28 52.5146C150.745 60.0994 152 68.0248 152 75.9999L75.9999 75.9999L148.28 52.5146Z" fill="#EBEBEB" stroke="#EBEBEB" stroke-width="0.296875"/>
<path d="M137.484 31.3281C142.172 37.7801 145.815 44.9297 148.279 52.5145L75.9989 75.9997L137.484 31.3281Z" fill="#EBEBEB" stroke="#EBEBEB" stroke-width="0.296875"/>
<path d="M120.671 14.5149C127.123 19.2025 132.797 24.8765 137.484 31.3285L75.9992 76.0002L120.671 14.5149Z" fill="#EBEBEB" stroke="#EBEBEB" stroke-width="0.296875"/>
<path d="M99.4854 3.71967C107.07 6.18411 114.22 9.82702 120.672 14.5147L76.0001 76L99.4854 3.71967Z" fill="#EBEBEB" stroke="#EBEBEB" stroke-width="0.296875"/>
<path d="M76 0.00109863C83.9751 0.00109873 91.9005 1.25636 99.4853 3.72081L76 76.0011L76 0.00109863Z" fill="#EBEBEB" stroke="#EBEBEB" stroke-width="0.296875"/>
</mask>
<g mask="url(#mask0_3481_18520)">
<path d="M76 7.125C85.0448 7.125 94.001 8.90651 102.357 12.3678C110.714 15.8291 118.306 20.9024 124.702 27.298C131.098 33.6937 136.171 41.2864 139.632 49.6427C143.094 57.999 144.875 66.9552 144.875 76C144.875 85.0448 143.094 94.001 139.632 102.357C136.171 110.714 131.098 118.306 124.702 124.702C118.306 131.098 110.714 136.171 102.357 139.632C94.001 143.094 85.0448 144.875 76 144.875C66.9552 144.875 57.999 143.094 49.6427 139.632C41.2864 136.171 33.6936 131.098 27.298 124.702C20.9024 118.306 15.8291 110.714 12.3678 102.357C8.9065 94.001 7.125 85.0448 7.125 76C7.12501 66.9552 8.90651 57.9989 12.3678 49.6426C15.8291 41.2863 20.9024 33.6936 27.2981 27.298C33.6937 20.9024 41.2864 15.8291 49.6427 12.3678C57.999 8.90649 66.9553 7.12499 76.0001 7.125L76 7.125Z" stroke="#EBEBEB" stroke-width="14.25"/>
</g>
</svg>
