<svg width="25" height="34" viewBox="0 0 25 34" fill="none" xmlns="http://www.w3.org/2000/svg">
<path d="M20.7374 8.26903C20.7374 8.39783 20.7374 8.51805 20.7288 8.64685C19.7324 8.43218 18.693 8.26044 17.6192 8.12306C17.5419 5.34954 15.2742 3.12557 12.4825 3.12557C9.69074 3.12557 7.41441 5.34954 7.34569 8.12306C6.27195 8.26044 5.23257 8.43218 4.23614 8.64685C4.22755 8.51805 4.22755 8.38925 4.22755 8.26044C4.22755 3.70089 7.92121 0 12.4911 0C17.0351 0.0171735 20.7374 3.70947 20.7374 8.26903ZM12.5168 33.0332C27.1025 26.9023 24.8777 11.2916 24.8777 11.2916C21.4761 10.0207 17.1811 9.26509 12.4996 9.26509C7.81813 9.26509 3.52317 10.0207 0.121565 11.2916C0.121565 11.2916 -2.10323 26.9023 12.4825 33.0332H12.5168Z" fill="#0078D7"/>
<path d="M16.5362 23.2008C16.5362 23.3811 16.5277 23.5528 16.5019 23.7246H8.48749C8.46172 23.5528 8.45312 23.3811 8.45312 23.2008C8.45312 21.3804 9.65571 19.8434 11.3136 19.3368C10.1969 18.8731 9.40661 17.774 9.40661 16.486C9.40661 14.7772 10.7896 13.4033 12.4904 13.4033C14.1912 13.4033 15.5742 14.7858 15.5742 16.486C15.5742 17.774 14.7839 18.8731 13.6672 19.3368C15.3337 19.8348 16.5362 21.3804 16.5362 23.2008Z" fill="white"/>
</svg>
