<svg width="18" height="13" viewBox="0 0 18 13" fill="none" xmlns="http://www.w3.org/2000/svg">
<path d="M17.3722 5.7639L11.8305 0.222231C11.6812 0.0780221 11.4813 -0.00177382 11.2737 2.9927e-05C11.0661 0.00183368 10.8676 0.0850926 10.7208 0.231874C10.574 0.378655 10.4907 0.577215 10.4889 0.784788C10.4871 0.99236 10.5669 1.19234 10.7111 1.34165L14.9014 5.53194H0.979167C0.769204 5.53194 0.56784 5.61535 0.419374 5.76381C0.270907 5.91228 0.1875 6.11364 0.1875 6.32361C0.1875 6.53357 0.270907 6.73493 0.419374 6.8834C0.56784 7.03186 0.769204 7.11527 0.979167 7.11527H14.9014L10.7111 11.3056C10.6355 11.3786 10.5752 11.4659 10.5337 11.5625C10.4922 11.6591 10.4704 11.763 10.4695 11.8681C10.4686 11.9732 10.4886 12.0775 10.5284 12.1748C10.5682 12.2721 10.627 12.3605 10.7013 12.4348C10.7756 12.5091 10.864 12.5679 10.9613 12.6077C11.0586 12.6475 11.1629 12.6676 11.268 12.6666C11.3731 12.6657 11.477 12.6439 11.5736 12.6024C11.6702 12.5609 11.7575 12.5006 11.8305 12.425L17.3722 6.88331C17.5206 6.73485 17.604 6.53353 17.604 6.32361C17.604 6.11368 17.5206 5.91236 17.3722 5.7639Z" fill="white"/>
</svg>
