<svg width="20" height="21" viewBox="0 0 20 21" fill="none" xmlns="http://www.w3.org/2000/svg">
<g clip-path="url(#clip0_3829_1867)">
<g clip-path="url(#clip1_3829_1867)">
<g clip-path="url(#clip2_3829_1867)">
<path d="M10 20.5762C11.9778 20.5762 13.9112 19.9897 15.5557 18.8909C17.2002 17.7921 18.4819 16.2303 19.2388 14.403C19.9957 12.5757 20.1937 10.5651 19.8079 8.62527C19.422 6.68546 18.4696 4.90363 17.0711 3.50511C15.6725 2.10658 13.8907 1.15418 11.9509 0.768324C10.0111 0.382471 8.00043 0.580505 6.17317 1.33738C4.3459 2.09426 2.78412 3.37598 1.6853 5.02047C0.58649 6.66497 0 8.59836 0 10.5762C0.00286757 13.2275 1.05736 15.7693 2.9321 17.6441C4.80684 19.5188 7.34872 20.5733 10 20.5762ZM10 4.74284C10.2472 4.74284 10.4889 4.81615 10.6945 4.95351C10.9 5.09086 11.0602 5.28608 11.1549 5.51449C11.2495 5.7429 11.2742 5.99423 11.226 6.23671C11.1778 6.47918 11.0587 6.70191 10.8839 6.87673C10.7091 7.05154 10.4863 7.17059 10.2439 7.21882C10.0014 7.26706 9.75005 7.2423 9.52165 7.14769C9.29324 7.05308 9.09801 6.89287 8.96066 6.68731C8.82331 6.48174 8.75 6.24007 8.75 5.99284C8.75 5.66132 8.8817 5.34338 9.11612 5.10896C9.35054 4.87454 9.66848 4.74284 10 4.74284ZM9.16667 8.90951H10C10.442 8.90951 10.866 9.0851 11.1785 9.39767C11.4911 9.71023 11.6667 10.1341 11.6667 10.5762V15.5762C11.6667 15.7972 11.5789 16.0092 11.4226 16.1654C11.2663 16.3217 11.0543 16.4095 10.8333 16.4095C10.6123 16.4095 10.4004 16.3217 10.2441 16.1654C10.0878 16.0092 10 15.7972 10 15.5762V10.5762H9.16667C8.94565 10.5762 8.73369 10.4884 8.57741 10.3321C8.42113 10.1758 8.33333 9.96386 8.33333 9.74284C8.33333 9.52183 8.42113 9.30987 8.57741 9.15359C8.73369 8.99731 8.94565 8.90951 9.16667 8.90951Z" fill="#333333"/>
</g>
</g>
</g>
<defs>
<clipPath id="clip0_3829_1867">
<rect width="20" height="20" fill="white" transform="translate(0 0.576172)"/>
</clipPath>
<clipPath id="clip1_3829_1867">
<rect width="20" height="20" fill="white" transform="translate(0 0.576172)"/>
</clipPath>
<clipPath id="clip2_3829_1867">
<rect width="20" height="20" fill="white" transform="translate(0 0.576172)"/>
</clipPath>
</defs>
</svg>
