<svg width="20" height="21" viewBox="0 0 20 21" fill="none" xmlns="http://www.w3.org/2000/svg">
<g clip-path="url(#clip0_3829_1824)">
<path d="M7.5 0.0302734H4.16667C3.0616 0.0302734 2.00179 0.46926 1.22039 1.25066C0.438987 2.03206 0 3.09187 0 4.19694L0 15.8636C0 16.4108 0.107774 16.9526 0.317169 17.4581C0.526563 17.9636 0.833478 18.423 1.22039 18.8099C2.00179 19.5913 3.0616 20.0303 4.16667 20.0303H11.6667V4.19694C11.6667 3.64977 11.5589 3.10795 11.3495 2.60243C11.1401 2.0969 10.8332 1.63757 10.4463 1.25066C10.0594 0.863751 9.60004 0.556837 9.09451 0.347442C8.58899 0.138047 8.04717 0.0302734 7.5 0.0302734ZM4.16667 15.8636H3.33333C3.11232 15.8636 2.90036 15.7758 2.74408 15.6195C2.5878 15.4632 2.5 15.2513 2.5 15.0303C2.5 14.8093 2.5878 14.5973 2.74408 14.441C2.90036 14.2847 3.11232 14.1969 3.33333 14.1969H4.16667C4.38768 14.1969 4.59964 14.2847 4.75592 14.441C4.9122 14.5973 5 14.8093 5 15.0303C5 15.2513 4.9122 15.4632 4.75592 15.6195C4.59964 15.7758 4.38768 15.8636 4.16667 15.8636ZM4.16667 12.5303H3.33333C3.11232 12.5303 2.90036 12.4425 2.74408 12.2862C2.5878 12.1299 2.5 11.918 2.5 11.6969C2.5 11.4759 2.5878 11.264 2.74408 11.1077C2.90036 10.9514 3.11232 10.8636 3.33333 10.8636H4.16667C4.38768 10.8636 4.59964 10.9514 4.75592 11.1077C4.9122 11.264 5 11.4759 5 11.6969C5 11.918 4.9122 12.1299 4.75592 12.2862C4.59964 12.4425 4.38768 12.5303 4.16667 12.5303ZM4.16667 9.19694H3.33333C3.11232 9.19694 2.90036 9.10914 2.74408 8.95286C2.5878 8.79658 2.5 8.58462 2.5 8.36361C2.5 8.14259 2.5878 7.93063 2.74408 7.77435C2.90036 7.61807 3.11232 7.53027 3.33333 7.53027H4.16667C4.38768 7.53027 4.59964 7.61807 4.75592 7.77435C4.9122 7.93063 5 8.14259 5 8.36361C5 8.58462 4.9122 8.79658 4.75592 8.95286C4.59964 9.10914 4.38768 9.19694 4.16667 9.19694ZM4.16667 5.86361H3.33333C3.11232 5.86361 2.90036 5.77581 2.74408 5.61953C2.5878 5.46325 2.5 5.25129 2.5 5.03027C2.5 4.80926 2.5878 4.5973 2.74408 4.44102C2.90036 4.28474 3.11232 4.19694 3.33333 4.19694H4.16667C4.38768 4.19694 4.59964 4.28474 4.75592 4.44102C4.9122 4.5973 5 4.80926 5 5.03027C5 5.25129 4.9122 5.46325 4.75592 5.61953C4.59964 5.77581 4.38768 5.86361 4.16667 5.86361ZM8.33333 15.8636H7.5C7.27899 15.8636 7.06702 15.7758 6.91074 15.6195C6.75446 15.4632 6.66667 15.2513 6.66667 15.0303C6.66667 14.8093 6.75446 14.5973 6.91074 14.441C7.06702 14.2847 7.27899 14.1969 7.5 14.1969H8.33333C8.55435 14.1969 8.76631 14.2847 8.92259 14.441C9.07887 14.5973 9.16667 14.8093 9.16667 15.0303C9.16667 15.2513 9.07887 15.4632 8.92259 15.6195C8.76631 15.7758 8.55435 15.8636 8.33333 15.8636ZM8.33333 12.5303H7.5C7.27899 12.5303 7.06702 12.4425 6.91074 12.2862C6.75446 12.1299 6.66667 11.918 6.66667 11.6969C6.66667 11.4759 6.75446 11.264 6.91074 11.1077C7.06702 10.9514 7.27899 10.8636 7.5 10.8636H8.33333C8.55435 10.8636 8.76631 10.9514 8.92259 11.1077C9.07887 11.264 9.16667 11.4759 9.16667 11.6969C9.16667 11.918 9.07887 12.1299 8.92259 12.2862C8.76631 12.4425 8.55435 12.5303 8.33333 12.5303ZM8.33333 9.19694H7.5C7.27899 9.19694 7.06702 9.10914 6.91074 8.95286C6.75446 8.79658 6.66667 8.58462 6.66667 8.36361C6.66667 8.14259 6.75446 7.93063 6.91074 7.77435C7.06702 7.61807 7.27899 7.53027 7.5 7.53027H8.33333C8.55435 7.53027 8.76631 7.61807 8.92259 7.77435C9.07887 7.93063 9.16667 8.14259 9.16667 8.36361C9.16667 8.58462 9.07887 8.79658 8.92259 8.95286C8.76631 9.10914 8.55435 9.19694 8.33333 9.19694ZM8.33333 5.86361H7.5C7.27899 5.86361 7.06702 5.77581 6.91074 5.61953C6.75446 5.46325 6.66667 5.25129 6.66667 5.03027C6.66667 4.80926 6.75446 4.5973 6.91074 4.44102C7.06702 4.28474 7.27899 4.19694 7.5 4.19694H8.33333C8.55435 4.19694 8.76631 4.28474 8.92259 4.44102C9.07887 4.5973 9.16667 4.80926 9.16667 5.03027C9.16667 5.25129 9.07887 5.46325 8.92259 5.61953C8.76631 5.77581 8.55435 5.86361 8.33333 5.86361ZM15.8333 4.19694H13.3333V20.0303H15.8333C16.938 20.0289 17.997 19.5895 18.7782 18.8084C19.5593 18.0273 19.9987 16.9683 20 15.8636V8.36361C19.9987 7.25894 19.5593 6.1999 18.7782 5.41879C17.997 4.63767 16.938 4.19826 15.8333 4.19694ZM16.6667 15.8636C16.5018 15.8636 16.3407 15.8147 16.2037 15.7232C16.0667 15.6316 15.9598 15.5014 15.8968 15.3492C15.8337 15.1969 15.8172 15.0293 15.8493 14.8677C15.8815 14.706 15.9609 14.5576 16.0774 14.441C16.194 14.3245 16.3424 14.2451 16.5041 14.213C16.6657 14.1808 16.8333 14.1973 16.9856 14.2604C17.1378 14.3234 17.268 14.4303 17.3596 14.5673C17.4511 14.7043 17.5 14.8655 17.5 15.0303C17.5 15.2513 17.4122 15.4632 17.2559 15.6195C17.0996 15.7758 16.8877 15.8636 16.6667 15.8636ZM16.6667 12.5303C16.5018 12.5303 16.3407 12.4814 16.2037 12.3898C16.0667 12.2983 15.9598 12.1681 15.8968 12.0158C15.8337 11.8636 15.8172 11.696 15.8493 11.5344C15.8815 11.3727 15.9609 11.2242 16.0774 11.1077C16.194 10.9911 16.3424 10.9118 16.5041 10.8796C16.6657 10.8475 16.8333 10.864 16.9856 10.927C17.1378 10.9901 17.268 11.0969 17.3596 11.234C17.4511 11.371 17.5 11.5321 17.5 11.6969C17.5 11.918 17.4122 12.1299 17.2559 12.2862C17.0996 12.4425 16.8877 12.5303 16.6667 12.5303ZM16.6667 9.19694C16.5018 9.19694 16.3407 9.14807 16.2037 9.0565C16.0667 8.96493 15.9598 8.83478 15.8968 8.68251C15.8337 8.53024 15.8172 8.36268 15.8493 8.20103C15.8815 8.03938 15.9609 7.89089 16.0774 7.77435C16.194 7.65781 16.3424 7.57844 16.5041 7.54629C16.6657 7.51413 16.8333 7.53063 16.9856 7.59371C17.1378 7.65678 17.268 7.76359 17.3596 7.90063C17.4511 8.03767 17.5 8.19879 17.5 8.36361C17.5 8.58462 17.4122 8.79658 17.2559 8.95286C17.0996 9.10914 16.8877 9.19694 16.6667 9.19694Z" fill="#3E3B56"/>
</g>
<defs>
<clipPath id="clip0_3829_1824">
<rect width="20" height="20" fill="white" transform="translate(0 0.0302734)"/>
</clipPath>
</defs>
</svg>
