<svg width="31" height="32" viewBox="0 0 31 32" fill="none" xmlns="http://www.w3.org/2000/svg">
<path d="M9.04159 2.27104C17.8197 -1.64804 28.1854 3.22773 30.5138 12.5976C33.8356 25.9689 19.5017 36.7944 7.63679 29.8131C0.98328 25.9003 -1.96679 17.1029 1.39975 10.0107C1.66827 9.44438 1.78389 8.94795 2.51364 8.87934C4.80607 8.6648 3.00345 11.7419 2.7113 12.8234C0.106836 22.4627 8.1552 31.1789 17.9129 29.5711C22.8484 28.7579 27.2119 24.6168 28.3992 19.761C31.1516 8.49891 19.6982 -0.512979 9.41454 4.51996L11.242 5.24091C11.3775 5.31325 11.7443 5.59141 11.7704 5.7124C11.8512 6.08036 9.84966 6.55933 9.66318 7.01086C10.7186 7.50105 12.0314 7.31894 11.7791 5.90074C20.4018 2.91965 28.7821 10.9 26.1341 19.7348C23.7509 27.6852 13.619 30.2322 7.68652 24.3997C2.54845 19.3481 3.6325 10.8489 9.53762 6.94974C7.9737 6.2924 5.44631 6.4558 6.01817 4.04223C6.17357 3.3849 6.98785 1.34428 7.31605 0.729352C8.25714 -1.03186 10.2276 0.760535 9.04159 2.27229V2.27104ZM13.9497 8.9442C13.3766 8.96042 12.9589 9.37328 12.893 9.94081C12.7338 11.3203 12.745 14.9151 12.8955 16.3059C13.0235 17.4908 14.0218 18.7556 15.2252 18.9577C16.1837 19.1186 18.905 19.0862 19.9257 18.9939C21.364 18.8629 21.2186 17.2239 20.2377 16.9233C19.2568 16.6227 17.1074 17.0069 15.94 16.8697C15.1966 16.7824 15.0685 16.3695 15.0051 15.6872C14.8286 13.7888 15.1493 11.6259 15.0076 9.69758C14.8709 9.25603 14.4034 8.93173 13.9509 8.9442H13.9497Z" fill="#4D2899"/>
</svg>
