<svg width="16" height="16" viewBox="0 0 16 16" fill="none" xmlns="http://www.w3.org/2000/svg">
<g clip-path="url(#clip0_5575_6237)">
<path d="M5.33333 8C7.53933 8 9.33333 6.206 9.33333 4C9.33333 1.794 7.53933 0 5.33333 0C3.12733 0 1.33333 1.794 1.33333 4C1.33333 6.206 3.12733 8 5.33333 8ZM5.33333 9.33333C2.39267 9.33333 0 11.726 0 14.6667V15.3333C0 15.7013 0.298667 16 0.666667 16H10C10.368 16 10.6667 15.7013 10.6667 15.3333V14.6667C10.6667 11.726 8.274 9.33333 5.33333 9.33333ZM15.798 6.81133L13.1367 9.39467C12.7493 9.78267 12.2247 9.99933 11.6667 9.99933C11.1087 9.99933 10.584 9.782 10.19 9.388L8.876 8.152C8.608 7.9 8.59533 7.478 8.848 7.20933C9.10067 6.94133 9.522 6.92867 9.79067 7.18133L11.1187 8.43133C11.4327 8.74467 11.9153 8.73067 12.2007 8.44533L14.8687 5.85467C15.1327 5.598 15.5547 5.60467 15.8113 5.86867C16.068 6.13267 16.0613 6.55533 15.7973 6.81133H15.798Z" fill="#065F46"/>
</g>
<defs>
<clipPath id="clip0_5575_6237">
<rect width="16" height="16" fill="white"/>
</clipPath>
</defs>
</svg>
