<svg width="18" height="18" viewBox="0 0 18 18" fill="none" xmlns="http://www.w3.org/2000/svg">
<g clip-path="url(#clip0_3496_27003)">
<path d="M18.0012 8.47703V9.5324C17.9867 9.65881 17.9722 9.78567 17.9581 9.91208C17.7427 11.8502 17.0023 13.5592 15.6967 15.0088C14.3105 16.5478 12.5923 17.5085 10.5485 17.8701C10.2098 17.93 9.86618 17.9639 9.52526 18.0102H8.46989C8.16861 17.9723 7.86556 17.945 7.56648 17.8952C5.68611 17.5811 4.04711 16.7715 2.69839 15.4237C0.675305 13.4019 -0.214888 10.9445 0.043669 8.0991C0.217215 6.18922 0.964695 4.50089 2.24162 3.06627C3.93788 1.16167 6.07196 0.135376 8.61921 0.0111633C10.3952 -0.0751691 12.065 0.338874 13.5855 1.26607C15.9227 2.69143 17.3564 4.75724 17.8616 7.45469C17.9246 7.79253 17.9559 8.1361 18.0017 8.47703H18.0012ZM9.00462 16.6117C13.2054 16.602 16.6067 13.1954 16.6028 9.00207C16.5988 4.80305 13.1953 1.39997 8.99845 1.39821C4.79944 1.39645 1.3761 4.82508 1.39151 9.0166C1.40693 13.2191 4.81706 16.6213 9.00462 16.6117Z" fill="#C4BEFF"/>
<path d="M8.29713 8.24127C8.29713 8.02808 8.29713 7.84176 8.29713 7.655C8.29713 6.92822 8.29273 6.20144 8.29934 5.47466C8.30286 5.10026 8.53631 4.83202 8.88737 4.76991C9.20054 4.71485 9.52341 4.88796 9.63617 5.191C9.67801 5.30332 9.69431 5.43062 9.69519 5.55131C9.70004 6.37763 9.69783 7.20396 9.69783 8.03028C9.69783 8.09371 9.69783 8.1567 9.69783 8.24083C9.78284 8.24083 9.85112 8.24083 9.91895 8.24083C10.7391 8.24083 11.5597 8.24215 12.3799 8.23994C12.66 8.23906 12.9045 8.3135 13.0635 8.55885C13.2084 8.78217 13.2247 9.02222 13.1 9.26008C12.9688 9.5107 12.7534 9.63624 12.4719 9.63668C11.6165 9.63888 10.7607 9.63756 9.90529 9.638C9.84231 9.638 9.77932 9.638 9.69739 9.638C9.69739 9.71685 9.69739 9.77939 9.69739 9.84194C9.69739 10.6859 9.70092 11.5298 9.69607 12.3738C9.69299 12.9103 9.23666 13.2521 8.76139 13.0825C8.47068 12.979 8.29846 12.7191 8.29757 12.3672C8.29537 11.5289 8.29669 10.6912 8.29669 9.85295C8.29669 9.78908 8.29669 9.72521 8.29669 9.638C8.22357 9.638 8.16191 9.638 8.0998 9.638C7.23824 9.638 6.37712 9.63976 5.51556 9.63624C5.24158 9.63536 5.0306 9.51247 4.89934 9.26933C4.7716 9.03279 4.78305 8.79318 4.92488 8.56766C5.08037 8.31967 5.32263 8.23906 5.60321 8.23994C6.42337 8.24171 7.24397 8.24039 8.06412 8.24039C8.13372 8.24039 8.20287 8.24039 8.29669 8.24039L8.29713 8.24127Z" fill="#C4BEFF"/>
</g>
<defs>
<clipPath id="clip0_3496_27003">
<rect width="18.0012" height="18.01" fill="white"/>
</clipPath>
</defs>
</svg>
