<svg width="32" height="32" viewBox="0 0 32 32" fill="none" xmlns="http://www.w3.org/2000/svg">
<g clip-path="url(#clip0_4979_6206)">
<path d="M6.66615 25.3333H14.6661V28H9.33281C8.97919 28 8.64005 28.1405 8.39 28.3905C8.13996 28.6406 7.99948 28.9797 7.99948 29.3333C7.99948 29.687 8.13996 30.0261 8.39 30.2761C8.64005 30.5262 8.97919 30.6667 9.33281 30.6667H22.6661C23.0198 30.6667 23.3589 30.5262 23.609 30.2761C23.859 30.0261 23.9995 29.687 23.9995 29.3333C23.9995 28.9797 23.859 28.6406 23.609 28.3905C23.3589 28.1405 23.0198 28 22.6661 28H17.3328V25.3333H25.3328C26.8691 25.3314 28.3577 24.7999 29.5478 23.8284C30.7379 22.8569 31.5567 21.5048 31.8661 20H0.132812C0.442274 21.5048 1.26105 22.8569 2.45115 23.8284C3.64124 24.7999 5.12987 25.3314 6.66615 25.3333Z" fill="#4D2899"/>
<path d="M25.3333 1.33398H6.66667C4.89921 1.3361 3.20474 2.03916 1.95496 3.28894C0.705176 4.53873 0.00211714 6.23319 0 8.00065L0 17.334H32V8.00065C31.9979 6.23319 31.2948 4.53873 30.045 3.28894C28.7953 2.03916 27.1008 1.3361 25.3333 1.33398Z" fill="#4D2899"/>
</g>
<defs>
<clipPath id="clip0_4979_6206">
<rect width="32" height="32" fill="white"/>
</clipPath>
</defs>
</svg>
