<svg width="24" height="24" viewBox="0 0 24 24" fill="none" xmlns="http://www.w3.org/2000/svg">
<path d="M14.3333 8C13.7811 8 13.3333 7.55228 13.3333 7V1C13.3333 0.447715 13.781 0 14.3333 0H23C23.5523 0 24 0.447715 24 1V7C24 7.55228 23.5523 8 23 8H14.3333ZM1 13.3333C0.447717 13.3333 0 12.8856 0 12.3333V0.999999C0 0.447714 0.447715 0 1 0H9.66667C10.219 0 10.6667 0.447715 10.6667 1V12.3333C10.6667 12.8856 10.219 13.3333 9.66667 13.3333H1ZM14.3333 24C13.7811 24 13.3333 23.5523 13.3333 23V11.6667C13.3333 11.1144 13.781 10.6667 14.3333 10.6667H23C23.5523 10.6667 24 11.1144 24 11.6667V23C24 23.5523 23.5523 24 23 24H14.3333ZM1 24C0.447717 24 0 23.5523 0 23V17C0 16.4477 0.447715 16 1 16H9.66667C10.219 16 10.6667 16.4477 10.6667 17V23C10.6667 23.5523 10.219 24 9.66667 24H1Z" fill="#7A69EE"/>
</svg>
