<svg width="16" height="16" viewBox="0 0 16 16" fill="none" xmlns="http://www.w3.org/2000/svg">
<g clip-path="url(#clip0_3496_31622)">
<path d="M7.28733 1.83351C7.14424 1.30702 6.83188 0.842243 6.39845 0.510885C5.96501 0.179527 5.43459 0 4.889 0C4.34341 0 3.81299 0.179527 3.37955 0.510885C2.94612 0.842243 2.63376 1.30702 2.49067 1.83351H0V3.16684H2.49067C2.63376 3.69333 2.94612 4.1581 3.37955 4.48946C3.81299 4.82082 4.34341 5.00035 4.889 5.00035C5.43459 5.00035 5.96501 4.82082 6.39845 4.48946C6.83188 4.1581 7.14424 3.69333 7.28733 3.16684H16V1.83351H7.28733ZM4.88867 3.66684C4.65792 3.66684 4.43236 3.59842 4.2405 3.47022C4.04864 3.34203 3.89911 3.15982 3.81081 2.94664C3.72251 2.73346 3.6994 2.49888 3.74442 2.27257C3.78943 2.04626 3.90055 1.83838 4.06371 1.67521C4.22687 1.51205 4.43475 1.40094 4.66106 1.35592C4.88737 1.31091 5.12195 1.33401 5.33513 1.42231C5.54831 1.51062 5.73052 1.66015 5.85871 1.85201C5.98691 2.04386 6.05533 2.26943 6.05533 2.50017C6.0548 2.80943 5.93172 3.10587 5.71304 3.32455C5.49436 3.54322 5.19792 3.66631 4.88867 3.66684Z" fill="#797691"/>
<path d="M11.1113 5.5C10.5663 5.50195 10.0369 5.6822 9.6039 6.01323C9.17091 6.34426 8.85814 6.80789 8.71333 7.33333H0V8.66667H8.71333C8.85619 9.19328 9.16842 9.65822 9.60182 9.98972C10.0352 10.3212 10.5657 10.5008 11.1113 10.5008C11.657 10.5008 12.1874 10.3212 12.6208 9.98972C13.0542 9.65822 13.3665 9.19328 13.5093 8.66667H16V7.33333H13.5093C13.3645 6.80789 13.0518 6.34426 12.6188 6.01323C12.1858 5.6822 11.6564 5.50195 11.1113 5.5ZM11.1113 9.16667C10.8806 9.16667 10.655 9.09824 10.4632 8.97005C10.2713 8.84185 10.1218 8.65964 10.0335 8.44646C9.94517 8.23328 9.92207 7.99871 9.96708 7.77239C10.0121 7.54608 10.1232 7.3382 10.2864 7.17504C10.4495 7.01188 10.6574 6.90077 10.8837 6.85575C11.11 6.81073 11.3446 6.83384 11.5578 6.92214C11.771 7.01044 11.9532 7.15998 12.0814 7.35183C12.2096 7.54369 12.278 7.76926 12.278 8C12.2776 8.30931 12.1546 8.60585 11.9359 8.82457C11.7172 9.04328 11.4206 9.16631 11.1113 9.16667Z" fill="#797691"/>
<path d="M4.88867 11C4.34329 11.0015 3.81342 11.1816 3.38003 11.5126C2.94663 11.8437 2.63356 12.3076 2.48867 12.8333H0V14.1667H2.49067C2.63376 14.6932 2.94612 15.1579 3.37955 15.4893C3.81299 15.8206 4.34341 16.0002 4.889 16.0002C5.43459 16.0002 5.96501 15.8206 6.39845 15.4893C6.83188 15.1579 7.14424 14.6932 7.28733 14.1667H16V12.8333H7.28733C7.1425 12.3078 6.82963 11.8441 6.3965 11.513C5.96338 11.182 5.43381 11.0018 4.88867 11ZM4.88867 14.6667C4.65792 14.6667 4.43236 14.5982 4.2405 14.47C4.04864 14.3419 3.89911 14.1596 3.81081 13.9465C3.72251 13.7333 3.6994 13.4987 3.74442 13.2724C3.78943 13.0461 3.90055 12.8382 4.06371 12.675C4.22687 12.5119 4.43475 12.4008 4.66106 12.3558C4.88737 12.3107 5.12195 12.3338 5.33513 12.4221C5.54831 12.5104 5.73052 12.66 5.85871 12.8518C5.98691 13.0437 6.05533 13.2693 6.05533 13.5C6.0548 13.8093 5.93172 14.1057 5.71304 14.3244C5.49436 14.5431 5.19792 14.6661 4.88867 14.6667Z" fill="#797691"/>
</g>
<defs>
<clipPath id="clip0_3496_31622">
<rect width="16" height="16" fill="white"/>
</clipPath>
</defs>
</svg>
