<svg width="26" height="26" viewBox="0 0 32 32" fill="none" xmlns="http://www.w3.org/2000/svg">
<g clip-path="url(#clip0_1423_11492)">
<path d="M2.66667 4C2.66667 3.26667 3.26667 2.66667 4 2.66667H14.6667V12H26.6667V10.12L16.5467 0H4C1.8 0 0 1.8 0 4V32H26.6667V29.3333H2.66667V4ZM17.3333 4.54667L22.12 9.33333H17.3333V4.54667ZM31.2267 23.2L26.8267 27.6L24.9467 25.72L28 22.6667H17.3333V20H28.0133L24.9467 16.9467L26.8267 15.0667L31.2267 19.4667C32.2533 20.5067 32.2533 22.1867 31.2267 23.2133V23.2Z" fill="#7A69EE"/>
</g>
<defs>
<clipPath id="clip0_1423_11492">
<rect width="32" height="32" fill="white"/>
</clipPath>
</defs>
</svg>
