<svg width="12" height="12" viewBox="0 0 12 12" fill="none" xmlns="http://www.w3.org/2000/svg">
<g clip-path="url(#clip0_5575_6242)">
<path d="M1.5 3C1.5 2.40666 1.67595 1.82664 2.00559 1.33329C2.33524 0.839943 2.80377 0.455426 3.35195 0.228363C3.90013 0.00129986 4.50333 -0.0581102 5.08527 0.0576455C5.66721 0.173401 6.20176 0.459124 6.62132 0.878681C7.04088 1.29824 7.3266 1.83279 7.44236 2.41473C7.55811 2.99667 7.4987 3.59987 7.27164 4.14805C7.04458 4.69623 6.66006 5.16477 6.16671 5.49441C5.67336 5.82406 5.09334 6 4.5 6C3.70459 5.99921 2.94199 5.68288 2.37956 5.12045C1.81712 4.55801 1.50079 3.79541 1.5 3ZM4.5 7C3.30693 7.00133 2.16311 7.47586 1.31948 8.31948C0.475854 9.16311 0.00132343 10.3069 0 11.5C0 11.6326 0.0526784 11.7598 0.146447 11.8536C0.240215 11.9473 0.367392 12 0.5 12H8.5C8.63261 12 8.75979 11.9473 8.85355 11.8536C8.94732 11.7598 9 11.6326 9 11.5C8.99868 10.3069 8.52415 9.16311 7.68052 8.31948C6.83689 7.47586 5.69307 7.00133 4.5 7ZM10.707 6L11.8535 4.8535C11.9446 4.7592 11.995 4.6329 11.9938 4.5018C11.9927 4.3707 11.9401 4.2453 11.8474 4.15259C11.7547 4.05989 11.6293 4.0073 11.4982 4.00617C11.3671 4.00503 11.2408 4.05542 11.1465 4.1465L10 5.293L8.8535 4.1465C8.7592 4.05542 8.6329 4.00503 8.5018 4.00617C8.3707 4.0073 8.24529 4.05989 8.15259 4.15259C8.05989 4.2453 8.0073 4.3707 8.00616 4.5018C8.00502 4.6329 8.05542 4.7592 8.1465 4.8535L9.293 6L8.1465 7.1465C8.09874 7.19263 8.06065 7.2478 8.03445 7.3088C8.00825 7.3698 7.99445 7.43541 7.99387 7.5018C7.9933 7.56819 8.00595 7.63403 8.03109 7.69548C8.05623 7.75693 8.09336 7.81275 8.1403 7.8597C8.18725 7.90665 8.24308 7.94377 8.30452 7.96891C8.36597 7.99405 8.43181 8.0067 8.4982 8.00613C8.56459 8.00555 8.6302 7.99176 8.6912 7.96555C8.7522 7.93935 8.80738 7.90126 8.8535 7.8535L10 6.707L11.1465 7.8535C11.2408 7.94458 11.3671 7.99498 11.4982 7.99384C11.6293 7.9927 11.7547 7.94012 11.8474 7.84741C11.9401 7.75471 11.9927 7.6293 11.9938 7.4982C11.995 7.3671 11.9446 7.2408 11.8535 7.1465L10.707 6Z" fill="#991B1B"/>
</g>
<defs>
<clipPath id="clip0_5575_6242">
<rect width="12" height="12" fill="white"/>
</clipPath>
</defs>
</svg>
