<svg width="26" height="19" viewBox="0 0 26 19" fill="none" xmlns="http://www.w3.org/2000/svg">
<path d="M24.8182 8.32709H4.03451L10.2899 2.04165C10.4028 1.93211 10.4929 1.80108 10.5548 1.6562C10.6167 1.51132 10.6493 1.35549 10.6507 1.19782C10.6521 1.04014 10.6222 0.883774 10.5627 0.737834C10.5033 0.591895 10.4156 0.459308 10.3046 0.34781C10.1936 0.236313 10.0617 0.148137 9.91643 0.0884288C9.77118 0.0287202 9.61556 -0.00132532 9.45864 4.48365e-05C9.30172 0.00141499 9.14664 0.0341737 9.00245 0.0964094C8.85826 0.158645 8.72785 0.249112 8.61883 0.36253L0.346024 8.67503C0.124465 8.89772 0 9.19971 0 9.51459C0 9.82947 0.124465 10.1315 0.346024 10.3542L8.61883 18.6667C8.84173 18.883 9.14026 19.0027 9.45013 19C9.76 18.9972 10.0564 18.8724 10.2755 18.6522C10.4947 18.432 10.619 18.1342 10.6216 17.8228C10.6243 17.5115 10.5052 17.2115 10.2899 16.9875L4.03451 10.7021H24.8182C25.1316 10.7021 25.4322 10.577 25.6539 10.3543C25.8755 10.1316 26 9.82954 26 9.51459C26 9.19965 25.8755 8.8976 25.6539 8.6749C25.4322 8.4522 25.1316 8.32709 24.8182 8.32709Z" fill="black"/>
</svg>
