<svg width="26" height="31" viewBox="0 0 26 31" fill="none" xmlns="http://www.w3.org/2000/svg">
<path d="M18.5999 0C18.672 0 18.7441 0 18.8204 0C18.9973 2.18619 18.1629 3.8197 17.1487 5.00263C16.1537 6.1774 14.791 7.31678 12.5872 7.1439C12.4401 4.98902 13.276 3.47666 14.2887 2.29645C15.228 1.19655 16.95 0.217802 18.5999 0Z" fill="#202224"/>
<path d="M25.2732 22.756C25.2732 22.7778 25.2732 22.7969 25.2732 22.8173C24.6538 24.6931 23.7703 26.3008 22.6922 27.7927C21.708 29.1472 20.502 30.9699 18.3484 30.9699C16.4876 30.9699 15.2516 29.7733 13.3444 29.7407C11.3271 29.708 10.2176 30.7412 8.37312 31.0012C8.16212 31.0012 7.95113 31.0012 7.74421 31.0012C6.38976 30.8052 5.29667 29.7325 4.50033 28.766C2.15215 25.9101 0.337593 22.2211 0 17.5002C0 17.0374 0 16.5759 0 16.1131C0.142932 12.7344 1.78461 9.98741 3.96671 8.6561C5.11834 7.94824 6.70149 7.3452 8.46432 7.61473C9.21982 7.7318 9.99166 7.99044 10.6682 8.24636C11.3094 8.49275 12.1111 8.92971 12.8707 8.90657C13.3853 8.8916 13.8971 8.62343 14.4158 8.43421C15.9349 7.88562 17.4241 7.25672 19.3871 7.55212C21.7461 7.90877 23.4205 8.95694 24.4551 10.5741C22.4594 11.8442 20.8817 13.7581 21.1513 17.0265C21.3909 19.9954 23.1169 21.7324 25.2732 22.756Z" fill="#202224"/>
</svg>
