<?xml version="1.0" encoding="UTF-8"?>
<svg version="1.1" xmlns="http://www.w3.org/2000/svg" width="214" height="214">
<path d="M0 0 C2.67900165 2.17463299 5.2780299 4.41457802 7.86328125 6.69921875 C8.49492187 7.199375 9.1265625 7.69953125 9.77734375 8.21484375 C28.46172234 23.05996646 41.0231781 49.26097165 43.86328125 72.69921875 C46.01731029 103.06597971 40.32954587 132.83888302 19.94140625 156.34765625 C19.255625 157.12367188 18.56984375 157.8996875 17.86328125 158.69921875 C17.363125 159.33085937 16.86296875 159.9625 16.34765625 160.61328125 C1.50253354 179.29765984 -24.69847165 191.8591156 -48.13671875 194.69921875 C-78.50347971 196.85324779 -108.27638302 191.16548337 -131.78515625 170.77734375 C-132.56117188 170.0915625 -133.3371875 169.40578125 -134.13671875 168.69921875 C-135.08417969 167.94898438 -135.08417969 167.94898438 -136.05078125 167.18359375 C-154.73515984 152.33847104 -167.2966156 126.13746585 -170.13671875 102.69921875 C-172.29074779 72.33245779 -166.60298337 42.55955448 -146.21484375 19.05078125 C-145.5290625 18.27476563 -144.84328125 17.49875 -144.13671875 16.69921875 C-143.6365625 16.06757812 -143.13640625 15.4359375 -142.62109375 14.78515625 C-109.46687566 -26.94342859 -41.34155024 -30.32400136 0 0 Z " fill="#FDFDFC" transform="translate(170.13671875,19.30078125)"/>
<path d="M0 0 C2.67900165 2.17463299 5.2780299 4.41457802 7.86328125 6.69921875 C8.49492187 7.199375 9.1265625 7.69953125 9.77734375 8.21484375 C28.46172234 23.05996646 41.0231781 49.26097165 43.86328125 72.69921875 C46.01731029 103.06597971 40.32954587 132.83888302 19.94140625 156.34765625 C19.255625 157.12367188 18.56984375 157.8996875 17.86328125 158.69921875 C17.363125 159.33085937 16.86296875 159.9625 16.34765625 160.61328125 C1.50253354 179.29765984 -24.69847165 191.8591156 -48.13671875 194.69921875 C-78.50347971 196.85324779 -108.27638302 191.16548337 -131.78515625 170.77734375 C-132.56117188 170.0915625 -133.3371875 169.40578125 -134.13671875 168.69921875 C-135.08417969 167.94898438 -135.08417969 167.94898438 -136.05078125 167.18359375 C-154.73515984 152.33847104 -167.2966156 126.13746585 -170.13671875 102.69921875 C-172.29074779 72.33245779 -166.60298337 42.55955448 -146.21484375 19.05078125 C-145.5290625 18.27476563 -144.84328125 17.49875 -144.13671875 16.69921875 C-143.6365625 16.06757812 -143.13640625 15.4359375 -142.62109375 14.78515625 C-109.46687566 -26.94342859 -41.34155024 -30.32400136 0 0 Z M-114.13671875 29.69921875 C-115.36455078 30.78976563 -115.36455078 30.78976563 -116.6171875 31.90234375 C-131.0530209 45.44276237 -139.8562766 64.17687998 -140.49023438 83.97900391 C-140.66422733 101.45343254 -136.04415841 118.22820903 -126.13671875 132.69921875 C-125.58628906 133.50875 -125.03585938 134.31828125 -124.46875 135.15234375 C-113.2248241 150.39997035 -95.33173643 161.0187689 -76.7265625 164.30078125 C-56.23675415 166.57494931 -35.15969707 162.90593979 -18.13671875 150.69921875 C-14.62732156 147.86491171 -11.35204868 144.86166497 -8.13671875 141.69921875 C-7.43546875 141.01085937 -6.73421875 140.3225 -6.01171875 139.61328125 C9.02701041 123.81086662 14.45388464 103.4494486 14.1328125 82.1328125 C13.55353696 65.69337207 5.92505076 48.83516836 -5.13671875 36.69921875 C-5.86375 35.88066406 -6.59078125 35.06210937 -7.33984375 34.21875 C-20.41236349 20.28175719 -38.96968742 11.38451436 -58.1015625 10.37890625 C-78.77844692 9.72366617 -98.60615512 15.54330011 -114.13671875 29.69921875 Z " fill="#EA4747" transform="translate(170.13671875,19.30078125)"/>
<path d="M0 0 C0 11.22 0 22.44 0 34 C-12.87 34 -25.74 34 -39 34 C-39.020625 29.235625 -39.04125 24.47125 -39.0625 19.5625 C-39.071604 18.0576001 -39.08070801 16.5527002 -39.09008789 15.00219727 C-39.09258545 13.82713623 -39.09508301 12.6520752 -39.09765625 11.44140625 C-39.10289307 10.23170166 -39.10812988 9.02199707 -39.11352539 7.77563477 C-39 5 -39 5 -38 4 C-35.71170901 3.62784794 -33.41369246 3.31523448 -31.11328125 3.02734375 C-30.4186528 2.93997452 -29.72402435 2.85260529 -29.00834656 2.7625885 C-27.53325023 2.57815367 -26.05788235 2.39588005 -24.58227539 2.21557617 C-22.33856749 1.9406936 -20.09603959 1.65740791 -17.85351562 1.37304688 C-16.41933409 1.19480282 -14.98509102 1.01705302 -13.55078125 0.83984375 C-12.24794189 0.67863037 -10.94510254 0.51741699 -9.6027832 0.35131836 C-6 0 -6 0 0 0 Z " fill="#80BC03" transform="translate(147,70)"/>
<path d="M0 0 C12.87 0 25.74 0 39 0 C39 11.22 39 22.44 39 34 C34.7925 33.54625 30.585 33.0925 26.25 32.625 C24.2994873 32.41738037 24.2994873 32.41738037 22.30957031 32.20556641 C21.24319336 32.08874512 20.17681641 31.97192383 19.078125 31.8515625 C18.00981445 31.73635254 16.94150391 31.62114258 15.84082031 31.50244141 C10.5402278 30.80903819 5.27301956 29.87883659 0 29 C0 19.43 0 9.86 0 0 Z " fill="#FFBA02" transform="translate(108,110)"/>
<path d="M0 0 C11.22 0 22.44 0 34 0 C34 9.24 34 18.48 34 28 C25.66857001 27.55367339 17.40582266 27.02558902 9.125 26 C8.44179687 25.9170166 7.75859375 25.8340332 7.0546875 25.74853516 C2.25592765 25.12796382 2.25592765 25.12796382 0 24 C0 16.08 0 8.16 0 0 Z " fill="#02A6F0" transform="translate(68,110)"/>
<path d="M0 0 C0 9.24 0 18.48 0 28 C-11.22 28 -22.44 28 -34 28 C-34 20.08 -34 12.16 -34 4 C-27.8815353 2.77630706 -22.02698822 1.64552735 -15.875 0.875 C-14.57304688 0.70742187 -13.27109375 0.53984375 -11.9296875 0.3671875 C-7.96849665 -0.00294365 -3.97844568 0 0 0 Z " fill="#F3501D" transform="translate(102,76)"/>
</svg>
