<svg width="17" height="15" viewBox="0 0 17 15" fill="none" xmlns="http://www.w3.org/2000/svg">
<path fill-rule="evenodd" clip-rule="evenodd" d="M2.10083 5.88376C2.38457 4.82387 2.94232 3.85736 3.71803 3.08138C4.49373 2.3054 5.46004 1.74729 6.51982 1.46318C7.57961 1.17906 8.69551 1.17894 9.75535 1.46283C10.8152 1.74672 11.7816 2.30461 12.5575 3.08042L14.1433 4.66626H11.4908C11.3251 4.66626 11.1661 4.73211 11.0489 4.84932C10.9317 4.96653 10.8658 5.1255 10.8658 5.29126C10.8658 5.45702 10.9317 5.61599 11.0489 5.7332C11.1661 5.85041 11.3251 5.91626 11.4908 5.91626H15.6508C15.8166 5.91626 15.9756 5.85041 16.0928 5.7332C16.21 5.61599 16.2758 5.45702 16.2758 5.29126V1.13126C16.2758 0.965498 16.21 0.806527 16.0928 0.689316C15.9756 0.572106 15.8166 0.506258 15.6508 0.506258C15.4851 0.506258 15.3261 0.572106 15.2089 0.689316C15.0917 0.806527 15.0258 0.965498 15.0258 1.13126V3.78126L13.4425 2.19792C12.5116 1.26664 11.352 0.596828 10.0802 0.255844C8.80837 -0.085141 7.46919 -0.0852836 6.1973 0.25543C4.92541 0.596144 3.76563 1.26571 2.83458 2.1968C1.90352 3.12789 1.234 4.28769 0.893333 5.55959C0.872103 5.63893 0.866708 5.72168 0.877456 5.8031C0.888204 5.88453 0.914884 5.96304 0.955974 6.03415C0.997064 6.10527 1.05176 6.16759 1.11694 6.21757C1.18211 6.26754 1.25649 6.30419 1.33583 6.32542C1.41517 6.34665 1.49792 6.35205 1.57934 6.3413C1.66077 6.33055 1.73928 6.30387 1.81039 6.26278C1.88151 6.22169 1.94383 6.167 1.99381 6.10182C2.04379 6.03665 2.08044 5.96226 2.10167 5.88292L2.10083 5.88376ZM14.9408 8.67709C14.8615 8.65579 14.7788 8.65032 14.6974 8.66098C14.616 8.67165 14.5375 8.69825 14.4664 8.73927C14.3953 8.78028 14.333 8.83491 14.283 8.90002C14.233 8.96514 14.1963 9.03946 14.175 9.11876C13.8913 10.1786 13.3335 11.1452 12.5578 11.9211C11.7821 12.6971 10.8158 13.2552 9.75601 13.5393C8.69623 13.8235 7.58032 13.8236 6.52048 13.5397C5.46064 13.2558 4.4942 12.6979 3.71833 11.9221L2.13333 10.3363H4.78583C4.95159 10.3363 5.11056 10.2704 5.22777 10.1532C5.34499 10.036 5.41083 9.87702 5.41083 9.71126C5.41083 9.5455 5.34499 9.38653 5.22777 9.26932C5.11056 9.15211 4.95159 9.08626 4.78583 9.08626H0.625C0.45924 9.08626 0.300269 9.15211 0.183058 9.26932C0.0658481 9.38653 0 9.5455 0 9.71126V13.8713C0 14.037 0.0658481 14.196 0.183058 14.3132C0.300269 14.4304 0.45924 14.4963 0.625 14.4963C0.79076 14.4963 0.949732 14.4304 1.06694 14.3132C1.18415 14.196 1.25 14.037 1.25 13.8713V11.2213L2.83333 12.8046C3.76425 13.7359 4.92394 14.4057 6.19581 14.7466C7.46768 15.0875 8.8069 15.0876 10.0788 14.7468C11.3507 14.406 12.5105 13.7363 13.4415 12.8051C14.3725 11.874 15.0419 10.7141 15.3825 9.44209C15.4253 9.28208 15.4028 9.11164 15.32 8.9682C15.2372 8.82476 15.1008 8.72006 14.9408 8.67709Z" fill="#212529"/>
</svg>
