<svg width="16" height="17" viewBox="0 0 16 17" fill="none" xmlns="http://www.w3.org/2000/svg">
<g clip-path="url(#clip0_3496_31510)">
<path d="M4.44181 3.24593L4.64994 2.19923C-0.478047 4.915 -0.174739 12.6348 5.24192 14.8623C5.59124 15.0059 6.88396 15.293 6.95717 15.3443C7.15485 15.4826 7.02307 16.0955 7.05758 16.3449C-0.878621 15.4554 -2.68487 4.55457 4.5464 1.14938L3.81428 0L7.89115 0.88954L4.44181 3.24593Z" fill="#616262"/>
<path d="M11.4502 15.6123L12.1823 16.7617L8.10547 15.8721L11.399 13.5157V14.5625C16.8073 11.4674 16.0197 3.47516 9.98598 1.62483C9.79981 1.56826 9.18483 1.49282 9.15449 1.46243C9.09906 1.40481 9.18378 0.604326 9.15031 0.419922C16.9422 1.56616 18.5999 12.2375 11.4513 15.6144L11.4502 15.6123Z" fill="#616262"/>
<path d="M12.6892 6.26253C12.663 5.96916 12.4058 5.7439 12.1171 5.71875H4.51139C4.17461 5.72923 3.93929 5.99431 3.91001 6.32121C3.81169 7.40248 3.98426 8.63464 3.91419 9.73163C3.93406 9.95061 4.2039 10.2786 4.42563 10.2786H7.37608C7.25371 10.6023 7.15331 10.9596 6.93471 11.2341C6.82594 11.3703 6.4923 11.5914 6.53623 11.7789C6.60944 12.0849 6.99747 11.9151 7.19828 11.8512C8.09251 11.5683 8.84032 11.0151 9.45112 10.3142L12.1171 10.3079C12.4141 10.2618 12.6672 10.0481 12.6902 9.73582C12.6139 8.61473 12.7875 7.36896 12.6902 6.26358L12.6892 6.26253ZM6.71508 8.57282C6.50381 8.76142 6.24338 8.40623 6.2005 8.45443C6.29463 9.09879 5.64095 9.13756 5.76018 8.45443C5.7173 8.41042 5.48511 8.62521 5.39098 8.63045C5.19122 8.64197 5.10859 8.42195 5.20586 8.26583C5.25606 8.18515 5.46629 8.10867 5.53636 8.04476C5.55833 8.02485 5.56878 8.00075 5.55414 7.98399C5.53218 7.95779 5.28953 7.84883 5.23305 7.79015C5.14624 7.699 5.13265 7.55127 5.21737 7.45487C5.39726 7.25056 5.69847 7.63404 5.75914 7.57117C5.77482 7.45068 5.72567 7.27675 5.78633 7.17198C5.85536 7.05568 6.04153 7.0473 6.13252 7.13845C6.2256 7.2317 6.19527 7.44858 6.19945 7.57117C6.31764 7.54812 6.417 7.40772 6.53937 7.39515C6.66488 7.38258 6.78934 7.48316 6.78515 7.61203C6.77783 7.80901 6.51113 7.89283 6.37516 7.99761C6.52159 8.12753 6.98073 8.33184 6.71299 8.57177L6.71508 8.57282ZM8.91876 8.63045C8.82463 8.62521 8.59245 8.41042 8.54957 8.45443C8.55689 8.62626 8.59559 8.96887 8.33202 8.9542C8.08205 8.93953 8.09983 8.63569 8.10925 8.45443C8.07473 8.41566 7.71913 8.81276 7.55493 8.52462C7.39177 8.23859 7.82686 8.16944 7.93354 7.98399C7.74946 7.9054 7.34575 7.677 7.59572 7.45382C7.80699 7.26523 8.06741 7.62042 8.11029 7.57222C8.0057 6.91842 8.66984 6.89118 8.55061 7.57222C8.67612 7.56279 8.77129 7.41087 8.89053 7.3962C9.11539 7.36791 9.19279 7.57012 9.11016 7.75767L8.75561 8.02799C8.76084 8.0479 9.04741 8.19563 9.09134 8.25011C9.20952 8.39575 9.12794 8.64197 8.91876 8.63045ZM11.5136 8.46805C11.454 8.77818 11.0513 8.54767 10.9269 8.42509C11.0482 9.13232 10.3642 9.13022 10.4855 8.42509C10.4667 8.39889 10.0975 8.82009 9.93118 8.52462C9.75338 8.20925 10.3067 8.10552 10.2795 7.99865C10.2701 7.96093 9.97511 7.82054 9.92596 7.73567C9.81614 7.54288 9.99498 7.34695 10.1927 7.40877C10.2429 7.42449 10.4541 7.60784 10.4855 7.57222C10.3736 6.89956 11.0377 6.89956 10.9258 7.57222C10.9624 7.61308 11.3578 7.20551 11.4979 7.51355C11.6349 7.81739 11.1068 7.92636 11.1319 8.02799C11.1538 8.11391 11.567 8.1862 11.5126 8.46805H11.5136Z" fill="#616262"/>
</g>
<defs>
<clipPath id="clip0_3496_31510">
<rect width="16" height="16.7619" fill="white"/>
</clipPath>
</defs>
</svg>
