<svg width="19" height="18" viewBox="0 0 19 18" fill="none" xmlns="http://www.w3.org/2000/svg">
<path d="M1.62691 1.04417C1.54821 1.00575 1.45977 0.991937 1.3731 1.00453C1.28644 1.01712 1.20558 1.05553 1.14107 1.11475C1.07656 1.17397 1.03139 1.25126 1.01145 1.33653C0.991506 1.4218 0.997722 1.5111 1.02928 1.59279L3.51691 8.26642C3.66362 8.66037 3.66362 9.09397 3.51691 9.48792L1.03016 16.1615C0.998756 16.2431 0.992622 16.3323 1.01255 16.4174C1.03248 16.5025 1.07755 16.5797 1.14191 16.6388C1.20627 16.698 1.28694 16.7365 1.37343 16.7492C1.45992 16.7619 1.54824 16.7483 1.62691 16.7102L17.3769 9.27267C17.4518 9.23724 17.5151 9.18125 17.5595 9.11123C17.6038 9.04122 17.6274 8.96004 17.6274 8.87717C17.6274 8.79429 17.6038 8.71312 17.5595 8.6431C17.5151 8.57308 17.4518 8.5171 17.3769 8.48167L1.62691 1.04417Z" stroke="#616262" stroke-width="1.2" stroke-linecap="round" stroke-linejoin="round"/>
<path d="M3.62695 8.87695H17.627" stroke="#616262" stroke-width="1.2" stroke-linecap="round" stroke-linejoin="round"/>
</svg>
