<svg width="12" height="9" viewBox="0 0 12 9" fill="none" xmlns="http://www.w3.org/2000/svg">
<path d="M11.3535 4.1467L7.8535 0.646704C7.7592 0.555625 7.6329 0.505227 7.5018 0.506367C7.3707 0.507506 7.24529 0.56009 7.15259 0.652794C7.05989 0.745498 7.0073 0.870905 7.00616 1.002C7.00502 1.1331 7.05542 1.2594 7.1465 1.3537L9.793 4.0002H1C0.867392 4.0002 0.740215 4.05288 0.646447 4.14665C0.552678 4.24042 0.5 4.3676 0.5 4.5002C0.5 4.63281 0.552678 4.75999 0.646447 4.85376C0.740215 4.94753 0.867392 5.0002 1 5.0002H9.793L7.1465 7.6467C7.09874 7.69283 7.06065 7.748 7.03445 7.809C7.00824 7.87 6.99445 7.93561 6.99387 8.002C6.9933 8.06839 7.00595 8.13423 7.03109 8.19568C7.05623 8.25713 7.09336 8.31295 7.1403 8.3599C7.18725 8.40685 7.24307 8.44397 7.30452 8.46911C7.36597 8.49426 7.43181 8.50691 7.4982 8.50633C7.56459 8.50575 7.6302 8.49196 7.6912 8.46575C7.7522 8.43955 7.80738 8.40146 7.8535 8.3537L11.3535 4.8537C11.4472 4.75994 11.4999 4.63279 11.4999 4.5002C11.4999 4.36762 11.4472 4.24047 11.3535 4.1467Z" fill="#212529"/>
</svg>
