<svg width="88" height="20" viewBox="0 0 88 20" fill="none" xmlns="http://www.w3.org/2000/svg">
<path d="M12.8207 5.07862V8.68656H4.97369C4.59627 8.68656 4.36309 8.93564 4.36309 9.26964C4.36309 9.54703 4.56663 9.798 4.85711 9.85272L10.2913 10.9075C12.4709 11.351 13.866 12.7945 13.866 14.7381C13.866 17.1799 11.803 18.9009 9.15703 18.9009H0.786409V15.2646H9.09775C9.47517 15.2646 9.73602 15.0155 9.73602 14.6551C9.73602 14.3777 9.56212 14.1268 9.242 14.0437L3.72087 12.9059C1.62821 12.4888 0.173828 11.0189 0.173828 9.1583C0.173828 6.77126 2.20918 5.07862 4.85315 5.07862H12.8167H12.8207Z" fill="#333333"/>
<path d="M25.9875 10.3247C25.5232 9.13207 24.3316 8.2716 22.7606 8.2716C20.4644 8.2716 19.0397 9.96424 19.0397 11.9909C19.0397 14.0175 20.4644 15.6818 22.7606 15.6818C24.3019 15.6818 25.5212 14.8497 25.9875 13.6288H30.0859C29.4753 16.931 26.6851 19.3181 22.7329 19.3181C18.0536 19.3181 15.1172 16.0989 15.1172 11.9909C15.1172 7.88288 18.0536 4.66367 22.7329 4.66367C26.7147 4.66367 29.5049 7.02241 30.0859 10.3247H25.9875Z" fill="#333333"/>
<path d="M43.1086 5.07901H47.0035V18.9012H43.1086V17.069H42.9644C42.0633 18.3465 40.4074 19.29 38.2851 19.3164C34.3606 19.3164 31.3965 16.3746 31.3965 12.0175C31.3965 7.66041 34.2163 4.63556 38.3147 4.66387C40.4074 4.66387 42.0633 5.60736 42.9644 6.85655H43.1086V5.08089V5.07901ZM43.1086 11.9892C43.1086 9.85121 41.51 8.21519 39.2435 8.21519C36.9769 8.21519 35.3486 9.82479 35.3486 11.9892C35.3486 14.1536 36.9473 15.7632 39.2435 15.7632C41.5396 15.7632 43.1086 14.0422 43.1086 11.9892Z" fill="#333333"/>
<path d="M64.1793 10.9059V18.8992H60.2548V11.4607C60.2548 9.46235 58.917 8.3528 57.2907 8.3528C55.5182 8.3528 54.0065 9.65671 54.0065 11.7381V18.8992H50.082V5.07886H53.8899V6.74508H54.0342C54.9926 5.46758 56.6208 4.69203 58.423 4.69203C61.9404 4.69203 64.1773 6.93944 64.1773 10.9078L64.1793 10.9059Z" fill="#333333"/>
<path d="M70.8639 0.304749V3.90891H66.9395V0.304749H70.8639ZM70.8639 5.68645V18.9011H66.9395V5.68645H70.8639Z" fill="#333333"/>
<path d="M81.7048 7.54892C85.3092 7.54892 87.6923 9.93597 87.6923 13.0721C87.6923 16.3744 85.2222 18.9011 81.7048 18.9011H73.9152V15.0705H81.442C82.7778 15.0705 83.505 14.0987 83.505 13.1005C83.5347 12.1003 82.8075 11.1568 81.442 11.1568H73.6523L74.672 0.304749H86.4138V4.13535H77.9859L77.6381 7.54892H81.7068H81.7048Z" fill="#7A69EE"/>
</svg>
