<svg width="30" height="32" viewBox="0 0 30 32" fill="none" xmlns="http://www.w3.org/2000/svg">
<path d="M27.3657 11.0468L17.247 1.17346C16.3683 0.293455 15.1043 -0.137211 13.8763 0.0387888L4.69234 1.29479C3.96301 1.39479 3.45234 2.06679 3.55234 2.79612C3.65234 3.52546 4.32301 4.03479 5.05501 3.93612L14.2403 2.68012C14.6483 2.62412 15.0697 2.76412 15.375 3.06946L25.495 12.9428C26.8883 14.3361 27.0243 16.5161 25.9257 18.0721C25.6137 17.4495 25.2283 16.8561 24.711 16.3388L14.7443 6.45612C13.867 5.57879 12.615 5.15612 11.3737 5.32146L2.18834 6.57746C1.58301 6.66012 1.11101 7.14412 1.04434 7.75212L0.024341 16.9735C-0.108992 18.1881 0.309674 19.3788 1.17634 20.2441L11.0643 30.0481C12.323 31.3081 13.9963 32.0001 15.7763 32.0001H15.799C17.5883 31.9948 19.2657 31.2908 20.523 30.0175L24.7457 25.7401C25.9817 24.4881 26.603 22.8615 26.643 21.2228L27.4123 20.4548C29.979 17.8548 29.9643 13.6388 27.3697 11.0455L27.3657 11.0468ZM6.66434 13.3348C5.92834 13.3348 5.33101 12.7375 5.33101 12.0015C5.33901 10.2575 7.98967 10.2588 7.99767 12.0015C7.99767 12.7375 7.40034 13.3348 6.66434 13.3348Z" fill="#4D2899"/>
</svg>
