<svg width="32" height="32" viewBox="0 0 32 32" fill="none" xmlns="http://www.w3.org/2000/svg">
<path d="M16 21.3333C14.9452 21.3333 13.914 21.0205 13.037 20.4345C12.1599 19.8485 11.4763 19.0155 11.0726 18.041C10.669 17.0664 10.5634 15.9941 10.7691 14.9595C10.9749 13.925 11.4829 12.9746 12.2288 12.2288C12.9746 11.4829 13.925 10.9749 14.9595 10.7691C15.9941 10.5634 17.0664 10.669 18.041 11.0726C19.0155 11.4763 19.8485 12.1599 20.4345 13.037C21.0205 13.914 21.3333 14.9452 21.3333 16C21.3333 17.4145 20.7714 18.771 19.7712 19.7712C18.771 20.7714 17.4145 21.3333 16 21.3333ZM7.57733 21.3333H1.33333C0.979711 21.3333 0.640573 21.1929 0.390524 20.9428C0.140476 20.6928 0 20.3536 0 20C0.0126345 18.0855 0.708966 16.2385 1.96341 14.7921C3.21785 13.3457 4.94783 12.3952 6.84133 12.112C7.06136 12.0812 7.28561 12.1058 7.49369 12.1837C7.70177 12.2616 7.88709 12.3902 8.03281 12.5579C8.17854 12.7256 8.28004 12.9271 8.3281 13.144C8.37616 13.3609 8.36925 13.5864 8.308 13.8C8.10367 14.5155 8.00001 15.2559 8 16C8.00038 17.1863 8.26741 18.3574 8.78133 19.4267C8.878 19.6296 8.92178 19.8537 8.90861 20.0781C8.89544 20.3025 8.82574 20.52 8.70601 20.7102C8.58627 20.9005 8.42037 21.0574 8.22374 21.1663C8.02711 21.2752 7.80613 21.3327 7.58133 21.3333H7.57733ZM22.6667 32H9.33333C8.97971 32 8.64057 31.8595 8.39052 31.6095C8.14048 31.3594 8 31.0203 8 30.6667C8 28.5449 8.84286 26.5101 10.3431 25.0098C11.8434 23.5095 13.8783 22.6667 16 22.6667C18.1217 22.6667 20.1566 23.5095 21.6569 25.0098C23.1571 26.5101 24 28.5449 24 30.6667C24 31.0203 23.8595 31.3594 23.6095 31.6095C23.3594 31.8595 23.0203 32 22.6667 32ZM24 10.6667C22.9452 10.6667 21.914 10.3539 21.037 9.76784C20.1599 9.18181 19.4763 8.34885 19.0726 7.37431C18.669 6.39977 18.5634 5.32742 18.7691 4.29285C18.9749 3.25829 19.4829 2.30798 20.2288 1.5621C20.9746 0.81622 21.925 0.308269 22.9595 0.102481C23.9941 -0.103307 25.0664 0.00231083 26.041 0.405978C27.0155 0.809646 27.8485 1.49323 28.4345 2.37029C29.0205 3.24736 29.3333 4.2785 29.3333 5.33334C29.3333 6.74782 28.7714 8.10438 27.7712 9.10457C26.771 10.1048 25.4145 10.6667 24 10.6667ZM8 10.6667C6.94517 10.6667 5.91402 10.3539 5.03696 9.76784C4.1599 9.18181 3.47631 8.34885 3.07264 7.37431C2.66898 6.39977 2.56336 5.32742 2.76915 4.29285C2.97493 3.25829 3.48288 2.30798 4.22876 1.5621C4.97464 0.81622 5.92495 0.308269 6.95952 0.102481C7.99408 -0.103307 9.06644 0.00231083 10.041 0.405978C11.0155 0.809646 11.8485 1.49323 12.4345 2.37029C13.0205 3.24736 13.3333 4.2785 13.3333 5.33334C13.3333 6.74782 12.7714 8.10438 11.7712 9.10457C10.771 10.1048 9.41449 10.6667 8 10.6667ZM30.6667 21.3333H24.4227C24.1979 21.3327 23.9769 21.2752 23.7803 21.1663C23.5836 21.0574 23.4177 20.9005 23.298 20.7102C23.1783 20.52 23.1086 20.3025 23.0954 20.0781C23.0822 19.8537 23.126 19.6296 23.2227 19.4267C23.7352 18.3571 24.0009 17.186 24 16C23.9978 15.2556 23.8919 14.5152 23.6853 13.8C23.6237 13.5858 23.6168 13.3596 23.6652 13.1421C23.7135 12.9245 23.8157 12.7226 23.9622 12.5547C24.1087 12.3868 24.295 12.2583 24.5041 12.181C24.7131 12.1036 24.9381 12.0799 25.1587 12.112C27.0522 12.3952 28.7822 13.3457 30.0366 14.7921C31.291 16.2385 31.9874 18.0855 32 20C32 20.3536 31.8595 20.6928 31.6095 20.9428C31.3594 21.1929 31.0203 21.3333 30.6667 21.3333Z" fill="#4D2899"/>
</svg>
