<svg width="22" height="21" viewBox="0 0 22 21" fill="none" xmlns="http://www.w3.org/2000/svg">
<path d="M21.1749 6.68745C21.0269 6.19945 20.6399 5.81945 20.1489 5.68145C20.0309 5.64745 17.2149 4.86245 13.8999 4.86245C12.8789 4.86245 11.8769 4.91645 10.9809 4.99145C11.6009 4.52945 12.3349 4.07245 13.1819 3.69445C13.9379 3.35645 14.2769 2.46845 13.9379 1.71245C13.5989 0.955449 12.7089 0.618449 11.9559 0.956449C8.09286 2.68545 6.11586 5.64745 6.03386 5.77245C5.70486 6.27245 5.70486 6.91945 6.03386 7.41945C6.11686 7.54445 8.08486 10.5264 11.9569 12.2364C12.5719 12.5074 13.4889 12.3884 13.9389 11.4804C14.3069 10.7374 13.9389 9.83645 13.1829 9.49845C12.2289 9.07145 11.4169 8.54545 10.7509 8.02545C11.6919 7.93445 12.7909 7.86145 13.9019 7.86145C15.7939 7.86145 17.5309 8.16245 18.5089 8.37145C18.7139 9.30645 19.0019 10.9764 19.0019 12.9874C19.0019 16.0444 18.3129 18.3974 18.3059 18.4214C18.0689 19.2134 18.5059 20.0944 19.3099 20.2874C20.2889 20.5224 20.9839 19.9334 21.1789 19.2844C21.2119 19.1724 22.0019 16.5104 22.0019 12.9884C22.0019 9.43645 21.2109 6.79845 21.1769 6.68745H21.1749Z" fill="#4F4E4E"/>
<path d="M7.39475 10.3241C5.29975 9.38609 3.89275 7.57809 3.24675 6.59609C3.89375 5.61209 5.30075 3.80509 7.39475 2.86809C8.15075 2.53009 8.48975 1.64209 8.15075 0.886091C7.81275 0.131091 6.92475 -0.205909 6.16875 0.130091C2.21975 1.89909 0.24175 5.75909 0.15975 5.92209C-0.05325 6.34609 -0.05325 6.84609 0.15975 7.27109C0.24175 7.43409 2.22875 11.2741 6.16875 13.0631C7.02775 13.4531 7.85675 12.9421 8.15075 12.3071C8.49875 11.5551 8.15075 10.6631 7.39475 10.3251V10.3241Z" fill="#4F4E4E"/>
</svg>
