<svg width="40" height="40" viewBox="0 0 40 40" fill="none" xmlns="http://www.w3.org/2000/svg">
<rect width="40" height="40" rx="20" fill="#EFECE8" fill-opacity="0.4"/>
<g clip-path="url(#clip0_3857_6272)">
<path d="M14.7492 25.25H19.2492V26.75H16.2492C16.0503 26.75 15.8595 26.829 15.7189 26.9697C15.5782 27.1103 15.4992 27.3011 15.4992 27.5C15.4992 27.6989 15.5782 27.8897 15.7189 28.0303C15.8595 28.171 16.0503 28.25 16.2492 28.25H23.7492C23.9481 28.25 24.1389 28.171 24.2796 28.0303C24.4202 27.8897 24.4992 27.6989 24.4992 27.5C24.4992 27.3011 24.4202 27.1103 24.2796 26.9697C24.1389 26.829 23.9481 26.75 23.7492 26.75H20.7492V25.25H25.2492C26.1134 25.2489 26.9507 24.9499 27.6202 24.4035C28.2896 23.857 28.7501 23.0964 28.9242 22.25H11.0742C11.2483 23.0964 11.7089 23.857 12.3783 24.4035C13.0477 24.9499 13.8851 25.2489 14.7492 25.25Z" fill="#A9A9A9"/>
<path d="M25.25 11.75H14.75C13.7558 11.7512 12.8027 12.1467 12.0997 12.8497C11.3967 13.5527 11.0012 14.5058 11 15.5V20.75H29V15.5C28.9988 14.5058 28.6033 13.5527 27.9003 12.8497C27.1973 12.1467 26.2442 11.7512 25.25 11.75Z" fill="#A9A9A9"/>
</g>
<defs>
<clipPath id="clip0_3857_6272">
<rect width="18" height="18" fill="white" transform="translate(11 11)"/>
</clipPath>
</defs>
</svg>
