<svg width="24" height="24" viewBox="0 0 24 24" fill="none" xmlns="http://www.w3.org/2000/svg">
<circle cx="12" cy="12" r="12" fill="#E5E5E5"/>
<path d="M19.6582 7.92064C19.6395 7.80264 19.4502 6.74264 18.6822 5.96864C17.9109 5.21397 16.8469 5.02731 16.7282 5.00864C16.5702 4.98264 16.4089 5.01597 16.2735 5.09997C16.2262 5.1293 15.5309 5.56464 14.1582 6.7253C14.8642 6.97464 15.7769 7.40731 16.5169 8.1313C17.2595 8.85797 17.7035 9.75197 17.9582 10.4453C19.1049 9.10531 19.5362 8.42664 19.5649 8.37997C19.6502 8.2433 19.6835 8.07997 19.6582 7.92064Z" fill="#4F4F4F"/>
<path d="M12.9672 7.76758C12.2519 8.41291 11.4192 9.19691 10.4659 10.1436C6.42392 14.1569 5.36392 15.7616 5.32058 15.8276C5.25992 15.9209 5.22325 16.0282 5.21458 16.1389L5.00192 18.8529C4.98725 19.0476 5.05725 19.2382 5.19525 19.3762C5.32058 19.5016 5.49058 19.5716 5.66725 19.5716C5.68392 19.5716 5.70125 19.5716 5.71858 19.5696L8.45258 19.3589C8.56258 19.3502 8.66858 19.3149 8.76125 19.2556C8.82792 19.2129 10.4432 18.1602 14.4846 14.1476C15.4592 13.1796 16.2633 12.3369 16.9213 11.6162C16.8206 11.1836 16.4692 9.94891 15.5846 9.08424C14.6872 8.20624 13.3966 7.86224 12.9672 7.76758Z" fill="#4F4F4F"/>
</svg>
