<svg width="24" height="23" viewBox="0 0 24 23" fill="none" xmlns="http://www.w3.org/2000/svg">
<g clip-path="url(#clip0_3829_1844)">
<path fill-rule="evenodd" clip-rule="evenodd" d="M3 9.47747V14.8819C3 17.4308 3 18.7041 3.76447 19.4964C4.458 20.2152 5.53694 20.2808 7.572 20.2875L7.55612 20.1708C7.43435 19.233 7.43435 18.0419 7.43435 16.563V16.5041C7.43435 16.0564 7.78482 15.693 8.21788 15.693C8.64988 15.693 9.00035 16.0564 9.00035 16.5041C9.00035 18.0552 9.00141 19.1375 9.10729 19.9541C9.21106 20.7475 9.39847 21.1686 9.68753 21.4675C9.97659 21.7664 10.3821 21.9619 11.1476 22.0675C11.9354 22.1786 12.9805 22.1797 14.4787 22.1797H15.5216C17.0199 22.1797 18.0639 22.1775 18.8527 22.0686C19.6182 21.9619 20.0238 21.7664 20.3118 21.4675C20.6008 21.1675 20.7893 20.7475 20.892 19.9541C20.9979 19.1386 21 18.0552 21 16.5041V7.85524C21 6.30302 20.9979 5.22191 20.892 4.40524C20.7893 3.61191 20.6008 3.1908 20.3128 2.89191C20.0238 2.59191 19.6182 2.39747 18.8516 2.29191C18.0649 2.17969 17.0209 2.17969 15.5227 2.17969H14.4798C12.9815 2.17969 11.9365 2.18191 11.1487 2.2908C10.3832 2.39747 9.97765 2.59302 9.68859 2.89191C9.39953 3.19191 9.21212 3.61191 9.10835 4.40524C9.00247 5.2208 9.00141 6.30302 9.00141 7.85524C9.00141 8.30302 8.65094 8.66635 8.21788 8.66635C8.11573 8.66709 8.01445 8.64668 7.91982 8.6063C7.82519 8.56592 7.73908 8.50636 7.66641 8.43103C7.59373 8.35569 7.53593 8.26606 7.49629 8.16726C7.45665 8.06847 7.43597 7.96244 7.43541 7.85524V7.79635C7.43541 6.31858 7.43541 5.12635 7.55718 4.18858L7.57306 4.07191C5.538 4.07858 4.46012 4.14413 3.76553 4.86302C3.00106 5.65524 3 6.92969 3 9.47747ZM13.4675 15.4552L16.0765 12.753C16.1491 12.6782 16.2068 12.589 16.2461 12.4906C16.2855 12.3921 16.3058 12.2864 16.3058 12.1797C16.3058 12.0729 16.2855 11.9672 16.2461 11.8688C16.2068 11.7704 16.1491 11.6811 16.0765 11.6064L13.4675 8.90413C13.3198 8.75206 13.1212 8.66686 12.9143 8.66686C12.7074 8.66686 12.5087 8.75206 12.3611 8.90413C12.2885 8.97891 12.2308 9.06813 12.1914 9.16657C12.152 9.26502 12.1318 9.37071 12.1318 9.47747C12.1318 9.58423 12.152 9.68992 12.1914 9.78836C12.2308 9.8868 12.2885 9.97602 12.3611 10.0508L13.6338 11.3686H6.13094C6.0287 11.3677 5.9273 11.388 5.83255 11.4283C5.73781 11.4686 5.65157 11.5282 5.57878 11.6035C5.506 11.6789 5.44809 11.7685 5.40839 11.8674C5.36869 11.9663 5.34797 12.0724 5.34741 12.1797C5.34741 12.6275 5.69788 12.9908 6.13094 12.9908H13.6327L12.36 14.3086C12.2874 14.3834 12.2297 14.4726 12.1903 14.571C12.151 14.6695 12.1307 14.7752 12.1307 14.8819C12.1307 14.9887 12.151 15.0944 12.1903 15.1928C12.2297 15.2912 12.2874 15.3805 12.36 15.4552C12.5077 15.6073 12.7063 15.6925 12.9132 15.6925C13.1201 15.6925 13.3198 15.6073 13.4675 15.4552Z" fill="#3E3B56"/>
</g>
<defs>
<clipPath id="clip0_3829_1844">
<rect width="24" height="22" fill="white" transform="translate(0 0.179688)"/>
</clipPath>
</defs>
</svg>
