<svg width="28" height="28" viewBox="0 0 28 28" fill="none" xmlns="http://www.w3.org/2000/svg">
<g clip-path="url(#clip0_4415_6193)">
<path d="M5.83385 22.1667H12.8339V24.5H8.16719C7.85777 24.5 7.56102 24.6229 7.34223 24.8417C7.12344 25.0605 7.00052 25.3572 7.00052 25.6667C7.00052 25.9761 7.12344 26.2728 7.34223 26.4916C7.56102 26.7104 7.85777 26.8333 8.16719 26.8333H19.8339C20.1433 26.8333 20.44 26.7104 20.6588 26.4916C20.8776 26.2728 21.0005 25.9761 21.0005 25.6667C21.0005 25.3572 20.8776 25.0605 20.6588 24.8417C20.44 24.6229 20.1433 24.5 19.8339 24.5H15.1672V22.1667H22.1672C23.5114 22.165 24.814 21.6999 25.8553 20.8498C26.8966 19.9998 27.6131 18.8167 27.8839 17.5H0.117188C0.387967 18.8167 1.1044 19.9998 2.14573 20.8498C3.18706 21.6999 4.48962 22.165 5.83385 22.1667Z" fill="black"/>
<path d="M22.1667 1.16666H5.83333C4.28681 1.16851 2.80415 1.78369 1.71059 2.87725C0.617029 3.97081 0.0018525 5.45346 0 6.99999L0 15.1667H28V6.99999C27.9981 5.45346 27.383 3.97081 26.2894 2.87725C25.1958 1.78369 23.7132 1.16851 22.1667 1.16666Z" fill="black"/>
</g>
<defs>
<clipPath id="clip0_4415_6193">
<rect width="28" height="28" fill="white"/>
</clipPath>
</defs>
</svg>
