<svg width="28" height="28" viewBox="0 0 28 28" fill="none" xmlns="http://www.w3.org/2000/svg">
<g clip-path="url(#clip0_4415_6203)">
<path d="M16.334 8.16667V0.536667C17.4132 0.944224 18.3935 1.57653 19.2098 2.39167L23.2745 6.45867C24.0905 7.27403 24.7233 8.25404 25.1307 9.33333H17.5007C17.1912 9.33333 16.8945 9.21042 16.6757 8.99162C16.4569 8.77283 16.334 8.47609 16.334 8.16667ZM25.6673 12.2325V22.1667C25.6655 23.7132 25.0503 25.1958 23.9567 26.2894C22.8632 27.383 21.3805 27.9981 19.834 28H8.16732C6.62079 27.9981 5.13814 27.383 4.04457 26.2894C2.95101 25.1958 2.33584 23.7132 2.33398 22.1667V5.83333C2.33584 4.28681 2.95101 2.80415 4.04457 1.71059C5.13814 0.617029 6.62079 0.0018525 8.16732 0L13.4348 0C13.625 0 13.8128 0.0151667 14.0007 0.028V8.16667C14.0007 9.09492 14.3694 9.98516 15.0258 10.6415C15.6822 11.2979 16.5724 11.6667 17.5007 11.6667H25.6393C25.6522 11.8545 25.6673 12.0423 25.6673 12.2325ZM16.334 22.1667C16.334 21.8572 16.2111 21.5605 15.9923 21.3417C15.7735 21.1229 15.4767 21 15.1673 21H9.33398C9.02457 21 8.72782 21.1229 8.50903 21.3417C8.29023 21.5605 8.16732 21.8572 8.16732 22.1667C8.16732 22.4761 8.29023 22.7728 8.50903 22.9916C8.72782 23.2104 9.02457 23.3333 9.33398 23.3333H15.1673C15.4767 23.3333 15.7735 23.2104 15.9923 22.9916C16.2111 22.7728 16.334 22.4761 16.334 22.1667ZM19.834 17.5C19.834 17.1906 19.7111 16.8938 19.4923 16.675C19.2735 16.4562 18.9767 16.3333 18.6673 16.3333H9.33398C9.02457 16.3333 8.72782 16.4562 8.50903 16.675C8.29023 16.8938 8.16732 17.1906 8.16732 17.5C8.16732 17.8094 8.29023 18.1062 8.50903 18.325C8.72782 18.5437 9.02457 18.6667 9.33398 18.6667H18.6673C18.9767 18.6667 19.2735 18.5437 19.4923 18.325C19.7111 18.1062 19.834 17.8094 19.834 17.5Z" fill="black"/>
</g>
<defs>
<clipPath id="clip0_4415_6203">
<rect width="28" height="28" fill="white"/>
</clipPath>
</defs>
</svg>
