<svg width="28" height="28" viewBox="0 0 28 28" fill="none" xmlns="http://www.w3.org/2000/svg">
<g clip-path="url(#clip0_4415_6199)">
<path d="M25.1129 9.66466L16.2591 1.02549C15.4903 0.255492 14.3843 -0.121342 13.3098 0.0326584L5.27377 1.13166C4.6356 1.21916 4.18877 1.80716 4.27627 2.44532C4.36377 3.08349 4.9506 3.52916 5.5911 3.44282L13.6283 2.34382C13.9853 2.29482 14.3539 2.41733 14.6211 2.68449L23.4761 11.3237C24.6953 12.5428 24.8143 14.4503 23.8529 15.8118C23.5799 15.267 23.2428 14.7478 22.7901 14.2952L14.0693 5.64782C13.3016 4.88016 12.2061 4.51032 11.1199 4.65499L3.08277 5.75399C2.5531 5.82632 2.1401 6.24983 2.08177 6.78182L1.18927 14.8505C1.0726 15.9133 1.43893 16.9552 2.19727 17.7123L10.8493 26.2908C11.9506 27.3933 13.4148 27.9988 14.9723 27.9988H14.9921C16.5578 27.9942 18.0254 27.3782 19.1256 26.264L22.8204 22.5213C23.9019 21.4258 24.4456 20.0025 24.4806 18.5687L25.1538 17.8967C27.3996 15.6217 27.3868 11.9327 25.1164 9.66349L25.1129 9.66466ZM6.99927 11.6667C6.35527 11.6667 5.8326 11.144 5.8326 10.5C5.8396 8.97399 8.15893 8.97516 8.16593 10.5C8.16593 11.144 7.64327 11.6667 6.99927 11.6667Z" fill="black"/>
</g>
<defs>
<clipPath id="clip0_4415_6199">
<rect width="28" height="28" fill="white"/>
</clipPath>
</defs>
</svg>
