<svg width="20" height="21" viewBox="0 0 20 21" fill="none" xmlns="http://www.w3.org/2000/svg">
<g clip-path="url(#clip0_3829_1427)">
<path d="M6.25 11.013C5.50832 11.013 4.7833 10.7931 4.16661 10.381C3.54993 9.96898 3.06928 9.38331 2.78545 8.69809C2.50162 8.01286 2.42736 7.25886 2.57206 6.53143C2.71675 5.80401 3.0739 5.13582 3.59835 4.61137C4.1228 4.08693 4.79098 3.72977 5.51841 3.58508C6.24584 3.44038 6.99984 3.51465 7.68506 3.79847C8.37029 4.0823 8.95596 4.56295 9.36801 5.17963C9.78007 5.79632 10 6.52134 10 7.26302C9.9989 8.25725 9.60345 9.21043 8.90043 9.91346C8.19741 10.6165 7.24422 11.0119 6.25 11.013ZM11.6667 20.1797H0.833333C0.61232 20.1797 0.400358 20.0919 0.244078 19.9356C0.0877974 19.7793 0 19.5674 0 19.3464V18.9297C0 17.2721 0.65848 15.6824 1.83058 14.5103C3.00268 13.3382 4.5924 12.6797 6.25 12.6797C7.9076 12.6797 9.49731 13.3382 10.6694 14.5103C11.8415 15.6824 12.5 17.2721 12.5 18.9297V19.3464C12.5 19.5674 12.4122 19.7793 12.2559 19.9356C12.0996 20.0919 11.8877 20.1797 11.6667 20.1797ZM14.5833 7.67969C13.8417 7.67969 13.1166 7.45976 12.4999 7.0477C11.8833 6.63565 11.4026 6.04997 11.1188 5.36475C10.835 4.67953 10.7607 3.92553 10.9054 3.1981C11.0501 2.47067 11.4072 1.80249 11.9317 1.27804C12.4561 0.753592 13.1243 0.396439 13.8517 0.251744C14.5792 0.10705 15.3332 0.181312 16.0184 0.465141C16.7036 0.74897 17.2893 1.22962 17.7013 1.8463C18.1134 2.46299 18.3333 3.18801 18.3333 3.92969C18.3322 4.92391 17.9368 5.8771 17.2338 6.58012C16.5307 7.28314 15.5776 7.67859 14.5833 7.67969ZM13.3992 9.36386C12.623 9.46799 11.8767 9.73128 11.2071 10.1372C10.5374 10.5432 9.95882 11.0831 9.5075 11.723C11.3749 12.5711 12.8422 14.1082 13.6025 16.013H19.1667C19.3877 16.013 19.5996 15.9252 19.7559 15.7689C19.9122 15.6127 20 15.4007 20 15.1797V15.148C19.9991 14.3174 19.8211 13.4964 19.4777 12.7401C19.1344 11.9837 18.6336 11.3093 18.0088 10.7618C17.3841 10.2144 16.6498 9.8065 15.8549 9.56543C15.0599 9.32436 14.2227 9.25564 13.3992 9.36386Z" fill="#3E3B56"/>
</g>
<defs>
<clipPath id="clip0_3829_1427">
<rect width="20" height="20" fill="white" transform="translate(0 0.179688)"/>
</clipPath>
</defs>
</svg>
