<svg width="18" height="18" viewBox="0 0 18 18" fill="none" xmlns="http://www.w3.org/2000/svg">
<g clip-path="url(#clip0_1489_13495)">
<path d="M8.45722 0.00142951C12.131 -0.0871088 14.4616 3.95527 12.4769 7.0845C10.7224 9.85067 6.71216 9.93606 4.83001 7.25686C2.73176 4.27065 4.8274 0.0883962 8.45722 0.00142951Z" fill="#07E098"/>
<path d="M1.19916 17.1661C0.625675 17.0891 0.0914305 16.5044 0.0422444 15.9323C-0.123628 14.006 0.151082 12.8843 1.73236 11.7391C3.73277 10.2905 7.17004 9.76659 9.58277 9.94891C9.66963 9.95572 9.75021 9.98191 9.8355 9.99029C8.24271 11.6903 7.92457 14.2029 9.09928 16.2367C9.29236 16.5704 9.53724 16.8533 9.75753 17.1661H1.19916Z" fill="#07E098"/>
<path d="M13.3141 9.21625C16.3186 9.00355 18.632 11.8635 17.8455 14.7732C16.8791 18.3493 12.0934 19.1755 9.99981 16.1191C8.06481 13.2937 9.92236 9.45672 13.3136 9.21625H13.3141ZM15.1131 11.9588C15.0351 11.9751 14.9498 12.0359 14.8881 12.0862L13.1378 13.8281C13.0242 13.8569 12.3623 13.2901 12.1399 13.2314C11.4231 13.0428 11.0191 13.8653 11.5858 14.3352C11.8176 14.5275 12.647 15.0949 12.9039 15.2117C13.2335 15.3615 13.4371 15.2615 13.695 15.0488C14.2115 14.6223 15.247 13.5855 15.6729 13.0685C15.8938 12.8007 16.0162 12.5241 15.7896 12.2046C15.6337 11.9845 15.3752 11.9044 15.1131 11.9588Z" fill="#07E098"/>
</g>
<defs>
<clipPath id="clip0_1489_13495">
<rect width="18" height="18" fill="white"/>
</clipPath>
</defs>
</svg>
