<svg width="37" height="35" viewBox="0 0 37 35" fill="none" xmlns="http://www.w3.org/2000/svg">
<path d="M11.3164 2L16.0533 4.36847" stroke="#4D2899" stroke-width="2.8171" stroke-linecap="round" stroke-linejoin="round"/>
<path d="M20.7988 4.36847L25.5358 2" stroke="#4D2899" stroke-width="2.8171" stroke-linecap="round" stroke-linejoin="round"/>
<path d="M13.6942 9.1054V7.38796C13.6656 6.69196 13.7668 5.99687 13.9917 5.34463C14.2166 4.69239 14.5606 4.09653 15.0028 3.59301C15.4451 3.08948 15.9764 2.68873 16.5648 2.41494C17.1532 2.14115 17.7865 2 18.4264 2C19.0663 2 19.6995 2.14115 20.2879 2.41494C20.8763 2.68873 21.4077 3.08948 21.8499 3.59301C22.2922 4.09653 22.6361 4.69239 22.861 5.34463C23.086 5.99687 23.1872 6.69196 23.1586 7.38796V9.1054" stroke="#4D2899" stroke-width="2.8171" stroke-linecap="round" stroke-linejoin="round"/>
<path d="M18.427 30.4197C13.2164 30.4197 8.95312 25.9925 8.95312 20.5815V15.6623C8.95312 13.9228 9.61855 12.2546 10.803 11.0246C11.9875 9.79453 13.594 9.10352 15.269 9.10352H21.5849C23.26 9.10352 24.8665 9.79453 26.051 11.0246C27.2354 12.2546 27.9009 13.9228 27.9009 15.6623V20.5815C27.9009 25.9925 23.6376 30.4197 18.427 30.4197Z" stroke="#4D2899" stroke-width="2.8171" stroke-linecap="round" stroke-linejoin="round"/>
<path d="M18.4219 30.4237V16.2129" stroke="#4D2899" stroke-width="2.8171" stroke-linecap="round" stroke-linejoin="round"/>
<path d="M8.95373 13.8437C6.36385 13.4884 4.2168 10.4686 4.2168 6.73828" stroke="#4D2899" stroke-width="2.8171" stroke-linecap="round" stroke-linejoin="round"/>
<path d="M8.94915 18.5762H1.84375" stroke="#4D2899" stroke-width="2.8171" stroke-linecap="round" stroke-linejoin="round"/>
<path d="M4.2168 32.7909C4.2168 29.0606 6.33595 25.8632 8.95373 25.6855" stroke="#4D2899" stroke-width="2.8171" stroke-linecap="round" stroke-linejoin="round"/>
<path d="M32.6315 6.73828C32.6315 10.4686 30.466 13.4884 27.8945 13.8437" stroke="#4D2899" stroke-width="2.8171" stroke-linecap="round" stroke-linejoin="round"/>
<path d="M34.9999 18.5762H27.8945" stroke="#4D2899" stroke-width="2.8171" stroke-linecap="round" stroke-linejoin="round"/>
<path d="M27.8945 25.6855C30.5123 25.8632 32.6315 29.0606 32.6315 32.7909" stroke="#4D2899" stroke-width="2.8171" stroke-linecap="round" stroke-linejoin="round"/>
</svg>
