<svg width="22" height="22" viewBox="0 0 22 22" fill="none" xmlns="http://www.w3.org/2000/svg">
<g clip-path="url(#clip0_3496_26926)">
<path d="M9.05398 16.6118C10.1276 17.6862 11.8688 17.6867 12.9431 16.6131C12.9435 16.6127 12.9439 16.6123 12.9443 16.6118L15.8877 13.6684C16.2273 13.2929 16.1981 12.7133 15.8226 12.3737C15.473 12.0576 14.9406 12.0581 14.5916 12.375L11.9094 15.0581L11.9158 0.916695C11.9158 0.410395 11.5054 0 10.9991 0C10.4929 0 10.0825 0.410395 10.0825 0.916652L10.0742 15.0407L7.40673 12.375C7.04854 12.0171 6.46803 12.0173 6.1101 12.3755C5.75217 12.7337 5.75239 13.3142 6.11058 13.6721L9.05398 16.6118Z" fill="#7A69EE"/>
<path d="M21.0833 14.666C20.5771 14.666 20.1667 15.0764 20.1667 15.5827V19.2494C20.1667 19.7556 19.7563 20.166 19.25 20.166H2.75C2.24374 20.166 1.83335 19.7556 1.83335 19.2494V15.5827C1.83335 15.0765 1.42295 14.6661 0.916695 14.6661C0.410395 14.666 0 15.0765 0 15.5827V19.2494C0 20.7681 1.23123 21.9994 2.75 21.9994H19.25C20.7688 21.9994 22 20.7681 22 19.2494V15.5827C22 15.0765 21.5896 14.666 21.0833 14.666Z" fill="#7A69EE"/>
</g>
<defs>
<clipPath id="clip0_3496_26926">
<rect width="22" height="22" fill="white"/>
</clipPath>
</defs>
</svg>
