<?xml version="1.0" encoding="UTF-8"?>
<svg version="1.1" xmlns="http://www.w3.org/2000/svg" width="214" height="214">
<path d="M0 0 C2.67900165 2.17463299 5.2780299 4.41457802 7.86328125 6.69921875 C8.49492187 7.199375 9.1265625 7.69953125 9.77734375 8.21484375 C28.46172234 23.05996646 41.0231781 49.26097165 43.86328125 72.69921875 C46.01731029 103.06597971 40.32954587 132.83888302 19.94140625 156.34765625 C19.255625 157.12367188 18.56984375 157.8996875 17.86328125 158.69921875 C17.363125 159.33085937 16.86296875 159.9625 16.34765625 160.61328125 C1.50253354 179.29765984 -24.69847165 191.8591156 -48.13671875 194.69921875 C-78.50347971 196.85324779 -108.27638302 191.16548337 -131.78515625 170.77734375 C-132.56117188 170.0915625 -133.3371875 169.40578125 -134.13671875 168.69921875 C-135.08417969 167.94898438 -135.08417969 167.94898438 -136.05078125 167.18359375 C-154.73515984 152.33847104 -167.2966156 126.13746585 -170.13671875 102.69921875 C-172.29074779 72.33245779 -166.60298337 42.55955448 -146.21484375 19.05078125 C-145.5290625 18.27476563 -144.84328125 17.49875 -144.13671875 16.69921875 C-143.6365625 16.06757812 -143.13640625 15.4359375 -142.62109375 14.78515625 C-109.46687566 -26.94342859 -41.34155024 -30.32400136 0 0 Z " fill="#FDFEFE" transform="translate(170.13671875,19.30078125)"/>
<path d="M0 0 C2.67900165 2.17463299 5.2780299 4.41457802 7.86328125 6.69921875 C8.49492187 7.199375 9.1265625 7.69953125 9.77734375 8.21484375 C28.46172234 23.05996646 41.0231781 49.26097165 43.86328125 72.69921875 C46.01731029 103.06597971 40.32954587 132.83888302 19.94140625 156.34765625 C19.255625 157.12367188 18.56984375 157.8996875 17.86328125 158.69921875 C17.363125 159.33085937 16.86296875 159.9625 16.34765625 160.61328125 C1.50253354 179.29765984 -24.69847165 191.8591156 -48.13671875 194.69921875 C-78.50347971 196.85324779 -108.27638302 191.16548337 -131.78515625 170.77734375 C-132.56117188 170.0915625 -133.3371875 169.40578125 -134.13671875 168.69921875 C-135.08417969 167.94898438 -135.08417969 167.94898438 -136.05078125 167.18359375 C-154.73515984 152.33847104 -167.2966156 126.13746585 -170.13671875 102.69921875 C-172.29074779 72.33245779 -166.60298337 42.55955448 -146.21484375 19.05078125 C-145.5290625 18.27476563 -144.84328125 17.49875 -144.13671875 16.69921875 C-143.6365625 16.06757812 -143.13640625 15.4359375 -142.62109375 14.78515625 C-109.46687566 -26.94342859 -41.34155024 -30.32400136 0 0 Z M-119.13671875 34.69921875 C-119.7296875 35.28703125 -120.32265625 35.87484375 -120.93359375 36.48046875 C-129.50811625 45.38733709 -135.33721691 56.68030483 -138.13671875 68.69921875 C-138.33910156 69.36308594 -138.54148438 70.02695313 -138.75 70.7109375 C-143.75208159 88.57551459 -138.99705165 109.32936543 -130.76171875 125.37890625 C-129.31647262 127.90023238 -127.77833928 130.30143411 -126.13671875 132.69921875 C-125.58628906 133.50875 -125.03585938 134.31828125 -124.46875 135.15234375 C-113.2248241 150.39997035 -95.33173643 161.0187689 -76.7265625 164.30078125 C-56.23675415 166.57494931 -35.15969707 162.90593979 -18.13671875 150.69921875 C-14.62732156 147.86491171 -11.35204868 144.86166497 -8.13671875 141.69921875 C-7.43546875 141.01085937 -6.73421875 140.3225 -6.01171875 139.61328125 C8.37855797 124.49224829 14.43548263 105.04388614 14.2800293 84.5222168 C13.78380503 67.06299933 6.6679145 49.65016969 -5.13671875 36.69921875 C-5.86375 35.88066406 -6.59078125 35.06210937 -7.33984375 34.21875 C-20.41236349 20.28175719 -38.96968742 11.38451436 -58.1015625 10.37890625 C-81.39616826 9.64071189 -103.06430392 17.39046432 -119.13671875 34.69921875 Z " fill="#09E099" transform="translate(170.13671875,19.30078125)"/>
<path d="M0 0 C4.33904747 0.51480224 5.99174076 1.75787302 9.20703125 4.5390625 C12.55094695 8.82703884 12.8423127 13.36234493 12.875 18.625 C13.40839792 27.00696728 17.46657547 32.19637313 22.4140625 38.7109375 C26.77057891 44.99891439 27.55010569 50.69552055 27.84301758 58.19360352 C28.10547797 63.1447086 28.10547797 63.1447086 31.24609375 66.9765625 C32.05175781 67.45867187 32.85742188 67.94078125 33.6875 68.4375 C33.5859375 70.1796875 33.5859375 70.1796875 32.6875 72.4375 C30.57234212 73.98162352 28.57504306 75.28006719 26.3125 76.5625 C25.13789418 77.25238857 23.96341101 77.94248601 22.7890625 78.6328125 C21.25378906 79.52613281 21.25378906 79.52613281 19.6875 80.4375 C18.6975 81.0975 17.7075 81.7575 16.6875 82.4375 C14.1875 82.75 14.1875 82.75 11.6875 82.4375 C11.22674072 81.94354736 10.76598145 81.44959473 10.29125977 80.94067383 C8.25915211 79.03601759 7.27310153 79.06293941 4.52734375 79.07421875 C3.3372168 79.07518555 3.3372168 79.07518555 2.12304688 79.07617188 C1.29869141 79.09228516 0.47433594 79.10839844 -0.375 79.125 C-1.61733398 79.12016602 -1.61733398 79.12016602 -2.88476562 79.11523438 C-7.60307609 78.91156204 -7.60307609 78.91156204 -11.3125 81.4375 C-17.24552523 81.87555181 -22.11705017 80.98290433 -27.75 79.1875 C-28.46865234 78.98253906 -29.18730469 78.77757812 -29.92773438 78.56640625 C-31.99609375 77.921875 -31.99609375 77.921875 -35.3125 76.4375 C-36.28125 74.54296875 -36.28125 74.54296875 -36.3125 72.4375 C-36.36535156 71.71691406 -36.41820313 70.99632812 -36.47265625 70.25390625 C-36.36513244 67.77225676 -36.15623344 65.78214618 -35.3125 63.4375 C-33.39141416 61.9204009 -31.39764676 60.91651345 -29.234375 59.77734375 C-26.31827289 57.74437013 -25.95149065 55.50857965 -25.078125 52.171875 C-24.12053091 48.75189612 -22.81361928 45.51709847 -21.4375 42.25 C-20.96570313 41.10144531 -20.49390625 39.95289063 -20.0078125 38.76953125 C-18.3125 35.4375 -18.3125 35.4375 -15.6484375 32.734375 C-11.92929422 28.5121356 -12.7252708 23.2060463 -12.8125 17.875 C-12.98458275 7.31838516 -12.98458275 7.31838516 -9.8984375 3.2734375 C-6.33971633 0.74685298 -4.27435272 0.56453715 0 0 Z " fill="#2B2B2B" transform="translate(108.3125,65.5625)"/>
<path d="M0 0 C3.35048431 1.78094577 4.30459451 5.11836521 5.73046875 8.4609375 C6.19163086 9.48960938 6.19163086 9.48960938 6.66210938 10.5390625 C9.07133561 15.95850356 10.16413845 19.84779828 10.10546875 25.7734375 C10.09644531 26.95292969 10.08742187 28.13242188 10.078125 29.34765625 C10.06652344 30.25128906 10.05492187 31.15492187 10.04296875 32.0859375 C9.05296875 32.4159375 8.06296875 32.7459375 7.04296875 33.0859375 C7.04039063 33.67761719 7.0378125 34.26929688 7.03515625 34.87890625 C6.72440205 41.22865045 6.72440205 41.22865045 4.7109375 43.76171875 C0.24271246 47.44718904 -2.41664178 48.2087076 -8.08203125 48.1484375 C-9.17773438 48.13941406 -10.2734375 48.13039062 -11.40234375 48.12109375 C-12.24539062 48.10949219 -13.0884375 48.09789062 -13.95703125 48.0859375 C-15.37413683 45.69457184 -15.97144927 44.38592532 -15.8359375 41.56640625 C-15.70473561 38.96451602 -15.70473561 38.96451602 -17.671875 37.13671875 C-18.77208984 36.27626953 -18.77208984 36.27626953 -19.89453125 35.3984375 C-23.88968132 32.22063735 -23.88968132 32.22063735 -24.95703125 30.0859375 C-25.51423927 24.65114044 -23.89858012 20.94225974 -21.64453125 16.1484375 C-21.02324669 14.7852432 -20.40215144 13.4219626 -19.78125 12.05859375 C-19.47751465 11.40133301 -19.1737793 10.74407227 -18.86083984 10.06689453 C-17.50527769 7.09578938 -16.23111574 4.0927769 -14.95703125 1.0859375 C-13.96703125 1.7459375 -12.97703125 2.4059375 -11.95703125 3.0859375 C-7.4955653 2.76726136 -3.9992462 0.1756156 0 0 Z " fill="#FBFBFB" transform="translate(112.95703125,90.9140625)"/>
<path d="M0 0 C0.33 1.32 0.66 2.64 1 4 C2.43640171 4.19573608 3.87419504 4.38127816 5.3125 4.5625 C6.11300781 4.66691406 6.91351563 4.77132812 7.73828125 4.87890625 C10.16817116 5.14755178 10.16817116 5.14755178 13 4 C13.495 4.99 13.495 4.99 14 6 C10.88401212 7.84651134 8.61754103 8.38079379 5 8 C4.34 7.34 3.68 6.68 3 6 C-4.94949026 19.3202224 -4.94949026 19.3202224 -7 34 C-4.81359784 37.09740306 -2.8763051 39.43158588 0.3125 41.5 C2 43 2 43 2.1875 46.0625 C2.0946875 47.5165625 2.0946875 47.5165625 2 49 C2.33 49.66 2.66 50.32 3 51 C10.93638806 51.51062613 10.93638806 51.51062613 18.5 49.5 C21.64701314 46.35298686 23.31554705 43.08232126 25 39 C25.33 39 25.66 39 26 39 C26 44.94 26 50.88 26 57 C27.65 57.33 29.3 57.66 31 58 C31 58.66 31 59.32 31 60 C27.6875 60.6875 27.6875 60.6875 24 61 C22.99567394 60.00434486 21.99585861 59.00412431 21 58 C19.01144922 57.55796288 19.01144922 57.55796288 16.83984375 57.63671875 C15.6497168 57.63768555 15.6497168 57.63768555 14.43554688 57.63867188 C13.61119141 57.65478516 12.78683594 57.67089844 11.9375 57.6875 C10.69516602 57.68266602 10.69516602 57.68266602 9.42773438 57.67773438 C4.70942391 57.47406204 4.70942391 57.47406204 1 60 C-4.93302523 60.43805181 -9.80455017 59.54540433 -15.4375 57.75 C-16.15615234 57.54503906 -16.87480469 57.34007812 -17.61523438 57.12890625 C-19.68359375 56.484375 -19.68359375 56.484375 -23 55 C-23.96875 53.10546875 -23.96875 53.10546875 -24 51 C-24.05285156 50.27941406 -24.10570313 49.55882812 -24.16015625 48.81640625 C-24.05263244 46.33475676 -23.84373344 44.34464618 -23 42 C-21.07891416 40.4829009 -19.08514676 39.47901345 -16.921875 38.33984375 C-14.00577289 36.30687013 -13.63899065 34.07107965 -12.765625 30.734375 C-10.85228393 23.90101404 -8.10770995 15.83043951 -3.1875 10.625 C-0.20854832 7.05025799 -0.23714451 4.58479395 0 0 Z " fill="#2F2F2F" transform="translate(96,87)"/>
<path d="M0 0 C4.16628303 1.52607671 5.79934451 4.17873996 8.1875 7.8125 C9.22970703 9.36904297 9.22970703 9.36904297 10.29296875 10.95703125 C11.88344783 13.79223309 12.80260582 15.76837533 13 19 C12.34 19.66 11.68 20.32 11 21 C3.93722691 20.73841581 -2.39162487 18.36800109 -9 16 C-8.98715254 12.57615061 -8.84530052 9.32736128 -8 6 C-5.0625 4.0625 -5.0625 4.0625 -2 3 C-1.34 2.01 -0.68 1.02 0 0 Z " fill="#F8F8F8" transform="translate(84,124)"/>
<path d="M0 0 C0.66 0.99 1.32 1.98 2 3 C6.34586828 3.39507893 8.32003497 3.45331002 12 1 C12.268125 1.78375 12.53625 2.5675 12.8125 3.375 C13.84814432 6.28114923 13.84814432 6.28114923 17 8 C15.71065316 11.86804053 14.16145439 12.48143909 10.75 14.625 C9.79609375 15.23601562 8.8421875 15.84703125 7.859375 16.4765625 C5.13685596 17.92708494 3.05506911 18.68582623 0 19 C-1 18 -1 18 -1.1328125 16.25 C-1.11374984 10.75995455 -0.69169796 5.44712142 0 0 Z " fill="#F7F7F7" transform="translate(122,126)"/>
<path d="M0 0 C0.66 0.66 1.32 1.32 2 2 C-0.25259529 5.4915227 -0.70574125 5.92643531 -5 7 C-5.66 10.3 -6.32 13.6 -7 17 C-6.16855469 17.20496094 -5.33710937 17.40992188 -4.48046875 17.62109375 C-3.39378906 17.89050781 -2.30710937 18.15992188 -1.1875 18.4375 C-0.10855469 18.70433594 0.97039062 18.97117188 2.08203125 19.24609375 C4.0740843 19.76077412 6.04811524 20.34937175 8 21 C8.33 21.99 8.66 22.98 9 24 C6.39392608 23.38221953 3.79034303 22.75612789 1.1875 22.125 C0.44951172 21.95097656 -0.28847656 21.77695313 -1.04882812 21.59765625 C-4.49717037 20.75507489 -7.01928362 19.98714425 -10 18 C-10.10530631 13.87330917 -10.00418433 10.01673732 -9 6 C-6.63181156 3.55014989 -4.10798553 2.3195542 -1 1 C-0.67 0.67 -0.34 0.34 0 0 Z " fill="#3E3E3E" transform="translate(82,123)"/>
<path d="M0 0 C0.99 0.66 1.98 1.32 3 2 C3 2.66 3 3.32 3 4 C-2.27358491 7.06603774 -2.27358491 7.06603774 -5.75 6.75 C-8 6 -8 6 -10 5 C-10 2 -10 2 -8.375 0.25 C-5.16712201 -1.43835684 -3.43955285 -0.95136568 0 0 Z " fill="#F2F2F2" transform="translate(109,86)"/>
<path d="M0 0 C1.65 0.33 3.3 0.66 5 1 C5.75 3.25 5.75 3.25 6 6 C4.0625 8.3125 4.0625 8.3125 2 10 C0.4375 8.9375 0.4375 8.9375 -1 7 C-0.6875 3.3125 -0.6875 3.3125 0 0 Z " fill="#464646" transform="translate(98,78)"/>
<path d="M0 0 C0.66 0.33 1.32 0.66 2 1 C-3.61 6.61 -9.22 12.22 -15 18 C-15 12.78391019 -10.50427167 9.58349868 -7 6 C-4.72395669 3.90689101 -2.40160434 1.95130352 0 0 Z " fill="#06DCA3" transform="translate(39,23)"/>
<path d="M0 0 C4.875 0.875 4.875 0.875 6 2 C6.04080783 3.99958364 6.04254356 6.00045254 6 8 C5.01 8 4.02 8 3 8 C3 6.68 3 5.36 3 4 C2.34 4 1.68 4 1 4 C0.34 4.99 -0.32 5.98 -1 7 C-1.625 5.1875 -1.625 5.1875 -2 3 C-1.34 2.01 -0.68 1.02 0 0 Z " fill="#E3E3E3" transform="translate(108,77)"/>
<path d="M0 0 C0.33 1.32 0.66 2.64 1 4 C2.43640171 4.19573608 3.87419504 4.38127816 5.3125 4.5625 C6.11300781 4.66691406 6.91351563 4.77132812 7.73828125 4.87890625 C10.16817116 5.14755178 10.16817116 5.14755178 13 4 C13.33 4.66 13.66 5.32 14 6 C10.88401212 7.84651134 8.61754103 8.38079379 5 8 C4.34 7.34 3.68 6.68 3 6 C2.34 6.66 1.68 7.32 1 8 C-0.35439668 5.29120665 -0.06501451 2.99066732 0 0 Z " fill="#474747" transform="translate(96,87)"/>
<path d="M0 0 C0.99 0.33 1.98 0.66 3 1 C3 3.31 3 5.62 3 8 C1.02 7.34 -0.96 6.68 -3 6 C-2.34 5.34 -1.68 4.68 -1 4 C-0.3574765 1.93125966 -0.3574765 1.93125966 0 0 Z " fill="#3D3D3D" transform="translate(109,80)"/>
<path d="M0 0 C1.65 0.33 3.3 0.66 5 1 C4.67 2.32 4.34 3.64 4 5 C2.68 4.34 1.36 3.68 0 3 C0.66 4.65 1.32 6.3 2 8 C1.01 7.67 0.02 7.34 -1 7 C-0.67 4.69 -0.34 2.38 0 0 Z " fill="#DFDFDF" transform="translate(98,78)"/>
<path d="M0 0 C0.33 0 0.66 0 1 0 C1.36540804 4.50669915 1.36540804 4.50669915 -0.25 6.6875 C-2.08641719 8.0648129 -3.90788221 9.0621541 -6 10 C-4.34784004 6.42032008 -2.26875648 3.22017048 0 0 Z " fill="#3A3A3A" transform="translate(96,93)"/>
</svg>
