<svg width="18" height="20" viewBox="0 0 18 20" fill="none" xmlns="http://www.w3.org/2000/svg">
<g clip-path="url(#clip0_1489_13502)">
<path d="M13.6434 10.5706C17.0127 10.5358 19.1211 14.2408 17.37 17.1307C15.7252 19.8455 11.7637 19.8965 10.0522 17.2229C8.22199 14.3629 10.2632 10.6058 13.6434 10.5706ZM15.2426 12.9247C15.132 12.929 15.0333 12.987 14.9525 13.0575L13.69 14.3162L12.3836 13.0331C12.0013 12.7625 11.5582 13.2056 11.8288 13.5879L13.1119 14.8813L11.8028 16.2175C11.53 16.6096 12.0072 17.0451 12.3755 16.7533L13.6764 15.4594L14.972 16.7354C15.3749 16.9865 15.7947 16.5272 15.5013 16.1514L14.2551 14.8949L15.5512 13.5825C15.7795 13.3287 15.5739 12.9117 15.2426 12.9247Z" fill="#EA4444"/>
<path d="M8.76513 0.804214C12.5726 0.712566 14.988 4.89695 12.9311 8.1361C11.1127 10.9994 6.95656 11.0878 5.00591 8.31452C2.83129 5.22341 5.00319 0.894236 8.76513 0.804214Z" fill="#EA4444"/>
<path d="M1.24281 18.5732C0.648446 18.4935 0.094758 17.8883 0.0437819 17.2961C-0.128127 15.302 0.15658 14.141 1.79541 12.9555C3.86862 11.4561 7.43098 10.9138 9.93153 11.1025C10.0215 11.1095 10.1051 11.1366 10.1935 11.1453C8.5427 12.9051 8.21298 15.5059 9.43044 17.6111C9.63055 17.9566 9.88435 18.2494 10.1127 18.5732H1.24281Z" fill="#EA4444"/>
</g>
<defs>
<clipPath id="clip0_1489_13502">
<rect width="18" height="18.3948" fill="white" transform="translate(0 0.802734)"/>
</clipPath>
</defs>
</svg>
