<svg width="14" height="16" viewBox="0 0 14 16" fill="none" xmlns="http://www.w3.org/2000/svg">
<path d="M12.2094 6.64026C12.0314 6.46233 11.8816 6.32186 11.7318 6.17202C11.507 5.94727 11.507 5.61951 11.713 5.41349C11.9191 5.20747 12.2468 5.21683 12.4716 5.43222C12.9211 5.87235 13.3612 6.32186 13.8107 6.77136C14.0636 7.03357 14.0636 7.32387 13.8107 7.57672C13.3612 8.02622 12.9117 8.47572 12.4622 8.92523C12.2375 9.14998 11.9097 9.15934 11.7037 8.94396C11.4883 8.72857 11.4977 8.41017 11.7318 8.18542C11.8067 8.1105 11.8816 8.02622 11.9659 7.9513C12.0408 7.87639 12.1157 7.80147 12.2 7.72655C12.1438 7.68909 12.0783 7.70782 12.0221 7.70782C10.8796 7.70782 9.74648 7.70782 8.60399 7.70782C8.35114 7.70782 8.14512 7.56735 8.07957 7.3426C8.01402 7.13658 8.07957 6.90246 8.2575 6.77136C8.36987 6.68708 8.50098 6.65898 8.64145 6.65898C9.7652 6.65898 10.8983 6.65898 12.0221 6.65898C12.0783 6.65898 12.1251 6.65898 12.2187 6.65898L12.2094 6.64026Z" fill="#EA4444"/>
<path d="M7.60102 7.58866C7.60102 9.45952 7.60102 11.3411 7.60102 13.2119C7.60102 13.383 7.64378 13.415 7.80414 13.415C9.08701 13.415 10.3699 13.415 11.6421 13.415C11.9628 13.415 11.9949 13.383 11.9949 13.0623C11.9949 12.6026 11.9949 12.1322 11.9949 11.6725C11.9949 11.2128 12.3049 11.0203 12.6577 10.999C12.9463 10.9776 13.1922 11.2983 13.1922 11.6725C13.1922 12.1322 13.1922 12.5812 13.1922 13.0409C13.1922 13.9603 12.6042 14.5482 11.6848 14.5482C10.2951 14.5482 8.90527 14.5482 7.52619 14.5482C7.38721 14.5482 7.30168 14.5803 7.20547 14.6872C6.82061 15.1042 6.31815 15.2218 5.79431 15.1042C4.2121 14.73 2.64058 14.3237 1.05837 13.9282C0.416934 13.7464 0 13.2012 0 12.5277C0 9.22432 0 5.93162 0 2.62822C0 1.95471 0.416934 1.3988 1.06906 1.23844C2.65127 0.842892 4.23348 0.44734 5.81569 0.0517873C6.38229 -0.0871905 6.86337 0.0517873 7.25892 0.490102C7.32306 0.564936 7.3979 0.575627 7.48342 0.575627C8.90527 0.575627 10.3164 0.575627 11.7383 0.575627C12.5935 0.575627 13.1922 1.18499 13.2029 2.04024C13.2029 2.28612 13.2029 2.53201 13.2029 2.7672C13.2029 3.02377 13.2029 3.28035 13.2029 3.53692C13.2029 3.9004 12.9463 4.16767 12.6042 4.16767C12.2621 4.16767 12.0055 3.91109 12.0055 3.53692C12.0055 3.04516 12.0055 2.55339 12.0055 2.05093C12.0055 1.82643 11.9414 1.76228 11.7169 1.76228C10.402 1.76228 9.07632 1.76228 7.76138 1.76228C7.59033 1.76228 7.60102 1.84781 7.60102 1.95471C7.60102 3.82557 7.60102 5.70712 7.60102 7.57797V7.58866Z" fill="#EA4444"/>
</svg>
