<svg width="29" height="31" viewBox="0 0 29 31" fill="none" xmlns="http://www.w3.org/2000/svg">
<path d="M19.3304 26.1667C18.7627 28.9205 16.2965 31 13.3493 31C10.402 31 7.93461 28.9205 7.36812 26.1667H19.3304ZM23.7269 10.4583C26.0832 10.4583 28 8.56125 28 6.22917C28 3.89708 26.0832 2 23.7269 2C21.3705 2 19.4537 3.89708 19.4537 6.22917C19.4537 8.56125 21.3705 10.4583 23.7269 10.4583ZM24.0199 12.8605C23.9222 12.8641 23.8258 12.875 23.7269 12.875C20.0239 12.875 17.012 9.89404 17.012 6.22917C17.012 5.13683 17.2842 4.10733 17.7591 3.19746C16.316 2.43017 14.6752 2 12.9537 2C8.191 2 4.06804 5.27338 3.03517 9.8735L0.166066 19.0532C-0.562807 21.3853 1.19894 23.7488 3.66515 23.7488H22.7795C25.3189 23.7488 27.088 21.2536 26.2236 18.8901L24.0187 12.8581L24.0199 12.8605Z" fill="#3E3B56"/>
<circle cx="23.5" cy="5.5" r="5.5" fill="#EA4444"/>
</svg>
