<?xml version="1.0" encoding="UTF-8"?>
<svg version="1.1" xmlns="http://www.w3.org/2000/svg" width="214" height="214">
<path d="M0 0 C2.67900165 2.17463299 5.2780299 4.41457802 7.86328125 6.69921875 C8.49492187 7.199375 9.1265625 7.69953125 9.77734375 8.21484375 C28.46172234 23.05996646 41.0231781 49.26097165 43.86328125 72.69921875 C46.01731029 103.06597971 40.32954587 132.83888302 19.94140625 156.34765625 C19.255625 157.12367188 18.56984375 157.8996875 17.86328125 158.69921875 C17.363125 159.33085937 16.86296875 159.9625 16.34765625 160.61328125 C1.50253354 179.29765984 -24.69847165 191.8591156 -48.13671875 194.69921875 C-78.50347971 196.85324779 -108.27638302 191.16548337 -131.78515625 170.77734375 C-132.56117188 170.0915625 -133.3371875 169.40578125 -134.13671875 168.69921875 C-135.08417969 167.94898438 -135.08417969 167.94898438 -136.05078125 167.18359375 C-154.73515984 152.33847104 -167.2966156 126.13746585 -170.13671875 102.69921875 C-172.29074779 72.33245779 -166.60298337 42.55955448 -146.21484375 19.05078125 C-145.5290625 18.27476563 -144.84328125 17.49875 -144.13671875 16.69921875 C-143.6365625 16.06757812 -143.13640625 15.4359375 -142.62109375 14.78515625 C-109.46687566 -26.94342859 -41.34155024 -30.32400136 0 0 Z " fill="#FEFDFD" transform="translate(170.13671875,19.30078125)"/>
<path d="M0 0 C2.67900165 2.17463299 5.2780299 4.41457802 7.86328125 6.69921875 C8.49492187 7.199375 9.1265625 7.69953125 9.77734375 8.21484375 C28.46172234 23.05996646 41.0231781 49.26097165 43.86328125 72.69921875 C46.01731029 103.06597971 40.32954587 132.83888302 19.94140625 156.34765625 C19.255625 157.12367188 18.56984375 157.8996875 17.86328125 158.69921875 C17.363125 159.33085937 16.86296875 159.9625 16.34765625 160.61328125 C1.50253354 179.29765984 -24.69847165 191.8591156 -48.13671875 194.69921875 C-78.50347971 196.85324779 -108.27638302 191.16548337 -131.78515625 170.77734375 C-132.56117188 170.0915625 -133.3371875 169.40578125 -134.13671875 168.69921875 C-135.08417969 167.94898438 -135.08417969 167.94898438 -136.05078125 167.18359375 C-154.73515984 152.33847104 -167.2966156 126.13746585 -170.13671875 102.69921875 C-172.29074779 72.33245779 -166.60298337 42.55955448 -146.21484375 19.05078125 C-145.5290625 18.27476563 -144.84328125 17.49875 -144.13671875 16.69921875 C-143.6365625 16.06757812 -143.13640625 15.4359375 -142.62109375 14.78515625 C-109.46687566 -26.94342859 -41.34155024 -30.32400136 0 0 Z M-114.13671875 29.69921875 C-115.36455078 30.78976563 -115.36455078 30.78976563 -116.6171875 31.90234375 C-131.0530209 45.44276237 -139.8562766 64.17687998 -140.49023438 83.97900391 C-140.66422733 101.45343254 -136.04415841 118.22820903 -126.13671875 132.69921875 C-125.58628906 133.50875 -125.03585938 134.31828125 -124.46875 135.15234375 C-113.2248241 150.39997035 -95.33173643 161.0187689 -76.7265625 164.30078125 C-56.23675415 166.57494931 -35.15969707 162.90593979 -18.13671875 150.69921875 C-14.62732156 147.86491171 -11.35204868 144.86166497 -8.13671875 141.69921875 C-7.43546875 141.01085937 -6.73421875 140.3225 -6.01171875 139.61328125 C9.02701041 123.81086662 14.45388464 103.4494486 14.1328125 82.1328125 C13.55353696 65.69337207 5.92505076 48.83516836 -5.13671875 36.69921875 C-5.86375 35.88066406 -6.59078125 35.06210937 -7.33984375 34.21875 C-20.41236349 20.28175719 -38.96968742 11.38451436 -58.1015625 10.37890625 C-78.77844692 9.72366617 -98.60615512 15.54330011 -114.13671875 29.69921875 Z " fill="#EA4747" transform="translate(170.13671875,19.30078125)"/>
<path d="M0 0 C4.65752332 1.92850575 7.85904998 1.25347977 12.5 -0.625 C18.32290437 -2.24247344 24.6390751 -2.83957099 30.359375 -0.58203125 C34.09751098 1.63492896 36.1303981 3.39555105 37.875 7.4375 C37.45347656 7.91960937 37.03195313 8.40171875 36.59765625 8.8984375 C36.04980469 9.53007813 35.50195312 10.16171875 34.9375 10.8125 C34.11958984 11.75222656 34.11958984 11.75222656 33.28515625 12.7109375 C29.4329417 17.42749936 30.38511239 23.65544618 30.875 29.4375 C32.520431 34.90973338 36.08777987 37.71748856 40.875 40.4375 C37.99732401 48.99903293 33.2414268 59.05508596 24.875 63.4375 C20.7490684 63.58863303 17.06893204 62.92075821 13.25 61.375 C8.5272605 59.51076072 4.43532676 60.07707692 -0.125 62 C-4.16034097 63.62815881 -6.86420335 63.69995827 -11.125 62.4375 C-20.93642057 56.30536214 -26.0142147 44.25061473 -28.72509766 33.39892578 C-30.49828952 24.70184189 -30.22986797 16.26760099 -25.68359375 8.52734375 C-19.26390313 -0.08051209 -10.37902348 -4.32624688 0 0 Z " fill="#242424" transform="translate(101.125,86.5625)"/>
<path d="M0 0 C0.76166402 5.96636815 -0.77932268 9.14263668 -4.28515625 13.9765625 C-7.3389604 17.57991227 -10.1085439 19.83552556 -14.875 20.25 C-15.57625 20.1675 -16.2775 20.085 -17 20 C-17.56011372 14.62290831 -16.74887302 11.3586554 -13.69921875 6.8671875 C-10.12859859 2.94360948 -5.35391408 0 0 0 Z " fill="#2B2B2B" transform="translate(124,64)"/>
</svg>
