<svg width="32" height="32" viewBox="0 0 32 32" fill="none" xmlns="http://www.w3.org/2000/svg">
<g clip-path="url(#clip0_4982_6231)">
<path d="M0 29.3333V13.3333C0 10.388 2.388 8 5.33333 8V29.3333C5.33333 30.8067 4.14 32 2.66667 32C1.19333 32 0 30.8067 0 29.3333ZM32 6.66667V25.3333C32 29.0147 29.0147 32 25.3333 32H7.25867C7.71867 31.212 8 30.3093 8 29.3333V6.66667C8 2.98533 10.9853 0 14.6667 0H25.3333C29.0147 0 32 2.98533 32 6.66667ZM13.3333 10.6667H16C16.736 10.6667 17.3333 10.0693 17.3333 9.33333V6.66667C17.3333 5.93067 16.736 5.33333 16 5.33333H13.3333C12.5973 5.33333 12 5.93067 12 6.66667V9.33333C12 10.0693 12.5973 10.6667 13.3333 10.6667ZM26.6667 24H13.3333C12.5973 24 12 24.5973 12 25.3333C12 26.0693 12.5973 26.6667 13.3333 26.6667H26.6667C27.4027 26.6667 28 26.0693 28 25.3333C28 24.5973 27.4027 24 26.6667 24ZM26.6667 18.6667H13.3333C12.5973 18.6667 12 19.264 12 20C12 20.736 12.5973 21.3333 13.3333 21.3333H26.6667C27.4027 21.3333 28 20.736 28 20C28 19.264 27.4027 18.6667 26.6667 18.6667ZM26.6667 13.3333H13.3333C12.5973 13.3333 12 13.9307 12 14.6667C12 15.4027 12.5973 16 13.3333 16H26.6667C27.4027 16 28 15.4027 28 14.6667C28 13.9307 27.4027 13.3333 26.6667 13.3333ZM26.6667 8H21.3333C20.5973 8 20 8.59733 20 9.33333C20 10.0693 20.5973 10.6667 21.3333 10.6667H26.6667C27.4027 10.6667 28 10.0693 28 9.33333C28 8.59733 27.4027 8 26.6667 8Z" fill="#4D2899"/>
</g>
<defs>
<clipPath id="clip0_4982_6231">
<rect width="32" height="32" fill="white"/>
</clipPath>
</defs>
</svg>
