<svg width="11" height="15" viewBox="0 0 11 15" fill="none" xmlns="http://www.w3.org/2000/svg">
<path d="M9.91558 8.70153C9.79069 8.58016 9.64265 8.51953 9.47159 8.51953H0.631492C0.460367 8.51953 0.312429 8.58016 0.187436 8.70153C0.0624443 8.82302 0 8.96667 0 9.13272C0 9.29875 0.0624443 9.44239 0.187436 9.56379L4.6075 13.8555C4.73263 13.9769 4.88057 14.0377 5.05156 14.0377C5.22255 14.0377 5.37062 13.9769 5.49551 13.8555L9.91558 9.56376C10.0404 9.44239 10.1031 9.29875 10.1031 9.13269C10.1031 8.96667 10.0404 8.82302 9.91558 8.70153Z" fill="white"/>
<path d="M0.189894 5.33754C0.314782 5.4589 0.462823 5.51953 0.63388 5.51953L9.47398 5.51953C9.6451 5.51953 9.79304 5.4589 9.91803 5.33754C10.043 5.21604 10.1055 5.07239 10.1055 4.90634C10.1055 4.74031 10.043 4.59667 9.91803 4.47527L5.49797 0.183522C5.37284 0.0621585 5.2249 0.0013923 5.05391 0.00139232C4.88292 0.00139233 4.73485 0.0621586 4.60996 0.183522L0.189894 4.47531C0.0650396 4.59667 0.0023536 4.74031 0.00235361 4.90637C0.00235363 5.0724 0.0650396 5.21604 0.189894 5.33754Z" fill="white"/>
</svg>
