<svg width="83" height="85" viewBox="0 0 83 85" fill="none" xmlns="http://www.w3.org/2000/svg">
<g filter="url(#filter0_d_4648_18554)">
<circle cx="42.5" cy="40.5" r="36.5" fill="#FFC58A"/>
</g>
<path d="M42.418 22.796V34.6122H58.9246C60.335 34.6122 61.4748 33.4642 61.4748 32.0538V25.3462C61.4748 23.9358 60.3432 22.796 58.9246 22.796H42.418ZM57.711 32.3326C57.711 32.0128 57.9734 31.7504 58.2932 31.7504C58.613 31.7504 58.8754 32.0128 58.8754 32.3326C58.8754 32.6524 58.613 32.9148 58.2932 32.9148C57.9734 32.9148 57.711 32.6524 57.711 32.3326ZM55.8332 32.3326C55.8332 32.0128 56.0956 31.7504 56.4154 31.7504C56.7352 31.7504 56.9976 32.0128 56.9976 32.3326C56.9976 32.6524 56.7352 32.9148 56.4154 32.9148C56.0956 32.9148 55.8332 32.6524 55.8332 32.3326ZM55.538 27.2404C55.538 26.2564 56.3334 25.4528 57.3256 25.4528C58.3178 25.4528 59.1132 26.2482 59.1132 27.2404C59.1132 28.2326 58.3178 29.028 57.3256 29.028C56.3334 29.028 55.538 28.2326 55.538 27.2404ZM53.898 32.3326C53.898 32.0128 54.1604 31.7504 54.4802 31.7504C54.8 31.7504 55.0624 32.0128 55.0624 32.3326C55.0624 32.6524 54.8 32.9148 54.4802 32.9148C54.1604 32.9148 53.898 32.6524 53.898 32.3326Z" fill="white"/>
<path d="M22.541 32.0538V25.3462C22.541 23.9358 23.689 22.796 25.0994 22.796H41.5978V34.6122H25.0994C23.689 34.6122 22.541 33.4642 22.541 32.0538Z" fill="#F7F7F7"/>
<path d="M58.9324 35.4896H42.4258V47.3058H58.9324C60.3428 47.3058 61.4826 46.1578 61.4826 44.7474V38.0398C61.4826 36.6294 60.351 35.4896 58.9324 35.4896ZM57.7106 45.0262C57.7106 44.7064 57.973 44.444 58.2928 44.444C58.6126 44.444 58.875 44.7064 58.875 45.0262C58.875 45.346 58.6126 45.6084 58.2928 45.6084C57.973 45.6084 57.7106 45.346 57.7106 45.0262ZM55.8328 45.0262C55.8328 44.7064 56.0952 44.444 56.415 44.444C56.7348 44.444 56.9972 44.7064 56.9972 45.0262C56.9972 45.346 56.7348 45.6084 56.415 45.6084C56.0952 45.6084 55.8328 45.346 55.8328 45.0262ZM55.0538 45.0262C55.0538 45.346 54.7914 45.6084 54.4716 45.6084C54.1518 45.6084 53.8894 45.346 53.8894 45.0262C53.8894 44.7064 54.1518 44.444 54.4716 44.444C54.7914 44.444 55.0538 44.7064 55.0538 45.0262ZM59.1128 39.9258C59.1128 40.9098 58.3174 41.7134 57.3252 41.7134C56.333 41.7134 55.5376 40.918 55.5376 39.9258C55.5376 38.9336 56.333 38.1382 57.3252 38.1382C58.3174 38.1382 59.1128 38.9336 59.1128 39.9258Z" fill="white"/>
<path d="M25.1072 47.3058C23.6968 47.3058 22.5488 46.1578 22.5488 44.7474V38.0398C22.5488 36.6294 23.6968 35.4896 25.1072 35.4896H41.6056V47.3058H25.1072Z" fill="#F7F7F7"/>
<path d="M58.9324 48.1832H42.4258V59.9994H58.9324C60.3428 59.9994 61.4826 58.8514 61.4826 57.441V50.7334C61.4826 49.323 60.351 48.1832 58.9324 48.1832ZM57.7106 57.7116C57.7106 57.3918 57.973 57.1294 58.2928 57.1294C58.6126 57.1294 58.875 57.3918 58.875 57.7116C58.875 58.0314 58.6126 58.2938 58.2928 58.2938C57.973 58.2938 57.7106 58.0314 57.7106 57.7116ZM55.8328 57.7116C55.8328 57.3918 56.0952 57.1294 56.415 57.1294C56.7348 57.1294 56.9972 57.3918 56.9972 57.7116C56.9972 58.0314 56.7348 58.2938 56.415 58.2938C56.0952 58.2938 55.8328 58.0314 55.8328 57.7116ZM55.0538 57.7116C55.0538 58.0314 54.7914 58.2938 54.4716 58.2938C54.1518 58.2938 53.8894 58.0314 53.8894 57.7116C53.8894 57.3918 54.1518 57.1294 54.4716 57.1294C54.7914 57.1294 55.0538 57.3918 55.0538 57.7116ZM59.1128 52.6194C59.1128 53.6034 58.3174 54.407 57.3252 54.407C56.333 54.407 55.5376 53.6116 55.5376 52.6194C55.5376 51.6272 56.333 50.8318 57.3252 50.8318C58.3174 50.8318 59.1128 51.6272 59.1128 52.6194Z" fill="white"/>
<path d="M25.1072 59.9994C23.6968 59.9994 22.5488 58.8514 22.5488 57.441V50.7334C22.5488 49.323 23.6968 48.1832 25.1072 48.1832H41.6056V59.9994H25.1072Z" fill="#F7F7F7"/>
<path d="M29.4205 63.3439C31.1061 60.0655 29.8148 56.0413 26.5364 54.3557C23.2579 52.6701 19.2338 53.9613 17.5482 57.2398C15.8626 60.5182 17.1538 64.5424 20.4322 66.228C23.7107 67.9136 27.7348 66.6224 29.4205 63.3439Z" fill="#94DB49" stroke="white" stroke-width="0.5" stroke-miterlimit="10"/>
<path d="M27.2312 59.4746L23.2624 63.4434C23.0984 63.6074 22.836 63.6074 22.672 63.4434L20.0644 60.8358C19.9004 60.6718 19.9004 60.4094 20.0644 60.2454L20.7286 59.5812C20.8926 59.4172 21.155 59.4172 21.319 59.5812L22.9754 61.2376L25.9848 58.2282C26.1488 58.0642 26.4112 58.0642 26.5752 58.2282L27.2394 58.8924C27.4034 59.0564 27.4034 59.3188 27.2394 59.4828L27.2312 59.4746Z" fill="white"/>
<defs>
<filter id="filter0_d_4648_18554" x="2" y="4" width="81" height="81" filterUnits="userSpaceOnUse" color-interpolation-filters="sRGB">
<feFlood flood-opacity="0" result="BackgroundImageFix"/>
<feColorMatrix in="SourceAlpha" type="matrix" values="0 0 0 0 0 0 0 0 0 0 0 0 0 0 0 0 0 0 127 0" result="hardAlpha"/>
<feOffset dy="4"/>
<feGaussianBlur stdDeviation="2"/>
<feComposite in2="hardAlpha" operator="out"/>
<feColorMatrix type="matrix" values="0 0 0 0 0 0 0 0 0 0 0 0 0 0 0 0 0 0 0.01 0"/>
<feBlend mode="normal" in2="BackgroundImageFix" result="effect1_dropShadow_4648_18554"/>
<feBlend mode="normal" in="SourceGraphic" in2="effect1_dropShadow_4648_18554" result="shape"/>
</filter>
</defs>
</svg>
