<svg width="84" height="88" viewBox="0 0 84 88" fill="none" xmlns="http://www.w3.org/2000/svg">
<g filter="url(#filter0_d_4648_18555)">
<circle cx="43.5" cy="43.5" r="36.5" fill="#A1E3CB"/>
</g>
<path d="M43.6211 22.7472V34.8432H60.5219C61.9667 34.8432 63.1259 33.6672 63.1259 32.2224V25.3596C63.1259 23.9148 61.9667 22.7472 60.5219 22.7472H43.6211ZM59.2787 32.4996C59.2787 32.172 59.5475 31.9032 59.8751 31.9032C60.2027 31.9032 60.4715 32.172 60.4715 32.4996C60.4715 32.8272 60.2027 33.096 59.8751 33.096C59.5475 33.096 59.2787 32.8272 59.2787 32.4996ZM57.3467 32.4996C57.3467 32.172 57.6155 31.9032 57.9431 31.9032C58.2707 31.9032 58.5395 32.172 58.5395 32.4996C58.5395 32.8272 58.2707 33.096 57.9431 33.096C57.6155 33.096 57.3467 32.8272 57.3467 32.4996ZM57.0527 27.2916C57.0527 26.2836 57.8675 25.4604 58.8839 25.4604C59.9003 25.4604 60.7151 26.2752 60.7151 27.2916C60.7151 28.308 59.9003 29.1228 58.8839 29.1228C57.8675 29.1228 57.0527 28.308 57.0527 27.2916ZM55.3643 32.4996C55.3643 32.172 55.6331 31.9032 55.9607 31.9032C56.2883 31.9032 56.5571 32.172 56.5571 32.4996C56.5571 32.8272 56.2883 33.096 55.9607 33.096C55.6331 33.096 55.3643 32.8272 55.3643 32.4996Z" fill="white"/>
<path d="M23.2764 32.2224V25.3596C23.2764 23.9148 24.4524 22.7472 25.8972 22.7472H42.7812V34.8432H25.8972C24.4524 34.8432 23.2764 33.6672 23.2764 32.2224Z" fill="white"/>
<path d="M60.5219 35.7336H43.6211V47.8296H60.5219C61.9667 47.8296 63.1259 46.6536 63.1259 45.2088V38.346C63.1259 36.9012 61.9667 35.7336 60.5219 35.7336ZM59.2787 45.4944C59.2787 45.1668 59.5475 44.898 59.8751 44.898C60.2027 44.898 60.4715 45.1668 60.4715 45.4944C60.4715 45.822 60.2027 46.0908 59.8751 46.0908C59.5475 46.0908 59.2787 45.822 59.2787 45.4944ZM57.3467 45.4944C57.3467 45.1668 57.6155 44.898 57.9431 44.898C58.2707 44.898 58.5395 45.1668 58.5395 45.4944C58.5395 45.822 58.2707 46.0908 57.9431 46.0908C57.6155 46.0908 57.3467 45.822 57.3467 45.4944ZM56.5571 45.4944C56.5571 45.822 56.2883 46.0908 55.9607 46.0908C55.6331 46.0908 55.3643 45.822 55.3643 45.4944C55.3643 45.1668 55.6331 44.898 55.9607 44.898C56.2883 44.898 56.5571 45.1668 56.5571 45.4944ZM60.7067 40.278C60.7067 41.286 59.8919 42.1092 58.8755 42.1092C57.8591 42.1092 57.0443 41.2944 57.0443 40.278C57.0443 39.2616 57.8591 38.4468 58.8755 38.4468C59.8919 38.4468 60.7067 39.2616 60.7067 40.278Z" fill="white"/>
<path d="M25.8972 47.8296C24.4524 47.8296 23.2764 46.6536 23.2764 45.2088V38.346C23.2764 36.9012 24.4524 35.7336 25.8972 35.7336H42.7812V47.8296H25.8972Z" fill="white"/>
<path d="M60.5219 48.7284H43.6211V60.8244H60.5219C61.9667 60.8244 63.1259 59.6484 63.1259 58.2036V51.3408C63.1259 49.896 61.9667 48.7284 60.5219 48.7284ZM59.2787 58.4808C59.2787 58.1532 59.5475 57.8844 59.8751 57.8844C60.2027 57.8844 60.4715 58.1532 60.4715 58.4808C60.4715 58.8084 60.2027 59.0772 59.8751 59.0772C59.5475 59.0772 59.2787 58.8084 59.2787 58.4808ZM57.3467 58.4808C57.3467 58.1532 57.6155 57.8844 57.9431 57.8844C58.2707 57.8844 58.5395 58.1532 58.5395 58.4808C58.5395 58.8084 58.2707 59.0772 57.9431 59.0772C57.6155 59.0772 57.3467 58.8084 57.3467 58.4808ZM56.5571 58.4808C56.5571 58.8084 56.2883 59.0772 55.9607 59.0772C55.6331 59.0772 55.3643 58.8084 55.3643 58.4808C55.3643 58.1532 55.6331 57.8844 55.9607 57.8844C56.2883 57.8844 56.5571 58.1532 56.5571 58.4808ZM60.7067 53.2728C60.7067 54.2808 59.8919 55.104 58.8755 55.104C57.8591 55.104 57.0443 54.2892 57.0443 53.2728C57.0443 52.2564 57.8591 51.4416 58.8755 51.4416C59.8919 51.4416 60.7067 52.2564 60.7067 53.2728Z" fill="white"/>
<path d="M25.8972 60.816C24.4524 60.816 23.2764 59.64 23.2764 58.1952V51.3324C23.2764 49.8876 24.4524 48.72 25.8972 48.72H42.7812V60.816H25.8972Z" fill="white"/>
<path d="M30.6116 64.4803C32.3383 61.1219 31.0156 56.9996 27.6572 55.2729C24.2988 53.5462 20.1765 54.8689 18.4498 58.2273C16.723 61.5857 18.0458 65.708 21.4042 67.4347C24.7626 69.1615 28.8849 67.8387 30.6116 64.4803Z" fill="#E23C4A" stroke="white" stroke-width="0.5" stroke-miterlimit="10"/>
<path d="M27.6108 60.2868H21.462C21.2532 60.2868 21.084 60.456 21.084 60.6648V62.0424C21.084 62.2512 21.2532 62.4204 21.462 62.4204H27.6108C27.8195 62.4204 27.9888 62.2512 27.9888 62.0424V60.6648C27.9888 60.456 27.8195 60.2868 27.6108 60.2868Z" fill="white"/>
<defs>
<filter id="filter0_d_4648_18555" x="3" y="7" width="81" height="81" filterUnits="userSpaceOnUse" color-interpolation-filters="sRGB">
<feFlood flood-opacity="0" result="BackgroundImageFix"/>
<feColorMatrix in="SourceAlpha" type="matrix" values="0 0 0 0 0 0 0 0 0 0 0 0 0 0 0 0 0 0 127 0" result="hardAlpha"/>
<feOffset dy="4"/>
<feGaussianBlur stdDeviation="2"/>
<feComposite in2="hardAlpha" operator="out"/>
<feColorMatrix type="matrix" values="0 0 0 0 0 0 0 0 0 0 0 0 0 0 0 0 0 0 0.01 0"/>
<feBlend mode="normal" in2="BackgroundImageFix" result="effect1_dropShadow_4648_18555"/>
<feBlend mode="normal" in="SourceGraphic" in2="effect1_dropShadow_4648_18555" result="shape"/>
</filter>
</defs>
</svg>
