<svg width="18" height="13" viewBox="0 0 18 13" fill="none" xmlns="http://www.w3.org/2000/svg">
<path d="M0.231306 5.7639L5.77297 0.222231C5.92228 0.0780221 6.12226 -0.00177382 6.32983 2.9927e-05C6.53741 0.00183368 6.73596 0.0850926 6.88275 0.231874C7.02953 0.378655 7.11279 0.577215 7.11459 0.784788C7.11639 0.99236 7.0366 1.19234 6.89239 1.34165L2.7021 5.53194H16.6243C16.8343 5.53194 17.0357 5.61535 17.1841 5.76381C17.3326 5.91228 17.416 6.11364 17.416 6.32361C17.416 6.53357 17.3326 6.73493 17.1841 6.8834C17.0357 7.03186 16.8343 7.11527 16.6243 7.11527H2.7021L6.89239 11.3056C6.968 11.3786 7.02831 11.4659 7.0698 11.5625C7.11129 11.6591 7.13313 11.763 7.13405 11.8681C7.13496 11.9732 7.11493 12.0775 7.07512 12.1748C7.03532 12.2721 6.97653 12.3605 6.9022 12.4348C6.82787 12.5091 6.73948 12.5679 6.64219 12.6077C6.54489 12.6475 6.44065 12.6676 6.33553 12.6666C6.23041 12.6657 6.12653 12.6439 6.02995 12.6024C5.93336 12.5609 5.846 12.5006 5.77297 12.425L0.231306 6.88331C0.0828915 6.73485 -0.000482559 6.53353 -0.000482559 6.32361C-0.000482559 6.11368 0.0828915 5.91236 0.231306 5.7639Z" fill="#212529"/>
</svg>
